<?xml version="1.0" encoding="UTF-8" standalone="no"?>
<!-- Created with Inkscape (http://www.inkscape.org/) -->

<svg
   xmlns:dc="http://purl.org/dc/elements/1.1/"
   xmlns:cc="http://creativecommons.org/ns#"
   xmlns:rdf="http://www.w3.org/1999/02/22-rdf-syntax-ns#"
   xmlns:svg="http://www.w3.org/2000/svg"
   xmlns="http://www.w3.org/2000/svg"
   xmlns:xlink="http://www.w3.org/1999/xlink"
   xmlns:sodipodi="http://sodipodi.sourceforge.net/DTD/sodipodi-0.dtd"
   xmlns:inkscape="http://www.inkscape.org/namespaces/inkscape"
   inkscape:export-ydpi="90"
   inkscape:export-xdpi="90"
   inkscape:export-filename="/home/b/src/Barobo/LinkbotLabs/html/images/algebra.png"
   sodipodi:docname="algebra2.svg"
   inkscape:version="0.48.4 r9939"
   sodipodi:version="0.32"
   id="svg2"
   height="300"
   width="300"
   version="1.0">
  <metadata
     id="metadata2193">
    <rdf:RDF>
      <cc:Work
         rdf:about="">
        <dc:format>image/svg+xml</dc:format>
        <dc:type
           rdf:resource="http://purl.org/dc/dcmitype/StillImage" />
        <dc:title></dc:title>
      </cc:Work>
    </rdf:RDF>
  </metadata>
  <sodipodi:namedview
     inkscape:window-height="744"
     inkscape:window-width="1366"
     inkscape:pageshadow="2"
     inkscape:pageopacity="0.0"
     borderopacity="1.0"
     bordercolor="#666666"
     pagecolor="#ffffff"
     id="base"
     inkscape:zoom="0.70710678"
     inkscape:cx="119.50811"
     inkscape:cy="114.82302"
     inkscape:window-x="0"
     inkscape:window-y="24"
     inkscape:current-layer="layer1"
     showgrid="false"
     fit-margin-top="78"
     fit-margin-left="0"
     fit-margin-right="0"
     fit-margin-bottom="78"
     inkscape:window-maximized="1"
     showborder="true"
     inkscape:showpageshadow="true"
     borderlayer="false" />
  <defs
     id="defs4">
    <linearGradient
       inkscape:collect="always"
       id="linearGradient3904">
      <stop
         style="stop-color:#000000;stop-opacity:1;"
         offset="0"
         id="stop3906" />
      <stop
         style="stop-color:#000000;stop-opacity:0;"
         offset="1"
         id="stop3908" />
    </linearGradient>
    <linearGradient
       id="linearGradient2795">
      <stop
         style="stop-color:#b8b8b8;stop-opacity:0.49803922"
         offset="0"
         id="stop2797" />
      <stop
         style="stop-color:#7f7f7f;stop-opacity:0"
         offset="1"
         id="stop2799" />
    </linearGradient>
    <linearGradient
       id="linearGradient2787">
      <stop
         style="stop-color:#7f7f7f;stop-opacity:0.5"
         offset="0"
         id="stop2789" />
      <stop
         style="stop-color:#7f7f7f;stop-opacity:0"
         offset="1"
         id="stop2791" />
    </linearGradient>
    <linearGradient
       id="linearGradient3676">
      <stop
         style="stop-color:#b2b2b2;stop-opacity:0.5"
         offset="0"
         id="stop3678" />
      <stop
         style="stop-color:#b3b3b3;stop-opacity:0"
         offset="1"
         id="stop3680" />
    </linearGradient>
    <linearGradient
       id="linearGradient3236">
      <stop
         style="stop-color:#f4f4f4;stop-opacity:1"
         offset="0"
         id="stop3244" />
      <stop
         style="stop-color:#ffffff;stop-opacity:1"
         offset="1"
         id="stop3240" />
    </linearGradient>
    <linearGradient
       id="linearGradient4671">
      <stop
         style="stop-color:#ffd43b;stop-opacity:1"
         offset="0"
         id="stop4673" />
      <stop
         style="stop-color:#ffe873;stop-opacity:1"
         offset="1"
         id="stop4675" />
    </linearGradient>
    <linearGradient
       id="linearGradient4689">
      <stop
         style="stop-color:#5a9fd4;stop-opacity:1"
         offset="0"
         id="stop4691" />
      <stop
         style="stop-color:#306998;stop-opacity:1"
         offset="1"
         id="stop4693" />
    </linearGradient>
    <linearGradient
       x1="224.23996"
       y1="144.75717"
       x2="-65.308502"
       y2="144.75717"
       id="linearGradient2987"
       xlink:href="#linearGradient4671"
       gradientUnits="userSpaceOnUse"
       gradientTransform="translate(100.2702,99.61116)" />
    <linearGradient
       x1="172.94208"
       y1="77.475983"
       x2="26.670298"
       y2="76.313133"
       id="linearGradient2990"
       xlink:href="#linearGradient4689"
       gradientUnits="userSpaceOnUse"
       gradientTransform="translate(100.2702,99.61116)" />
    <linearGradient
       x1="172.94208"
       y1="77.475983"
       x2="26.670298"
       y2="76.313133"
       id="linearGradient2587"
       xlink:href="#linearGradient4689"
       gradientUnits="userSpaceOnUse"
       gradientTransform="translate(100.2702,99.61116)" />
    <linearGradient
       x1="224.23996"
       y1="144.75717"
       x2="-65.308502"
       y2="144.75717"
       id="linearGradient2589"
       xlink:href="#linearGradient4671"
       gradientUnits="userSpaceOnUse"
       gradientTransform="translate(100.2702,99.61116)" />
    <linearGradient
       x1="172.94208"
       y1="77.475983"
       x2="26.670298"
       y2="76.313133"
       id="linearGradient2248"
       xlink:href="#linearGradient4689"
       gradientUnits="userSpaceOnUse"
       gradientTransform="translate(100.2702,99.61116)" />
    <linearGradient
       x1="224.23996"
       y1="144.75717"
       x2="-65.308502"
       y2="144.75717"
       id="linearGradient2250"
       xlink:href="#linearGradient4671"
       gradientUnits="userSpaceOnUse"
       gradientTransform="translate(100.2702,99.61116)" />
    <linearGradient
       x1="224.23996"
       y1="144.75717"
       x2="-65.308502"
       y2="144.75717"
       id="linearGradient2255"
       xlink:href="#linearGradient4671"
       gradientUnits="userSpaceOnUse"
       gradientTransform="matrix(0.562541,0,0,0.567972,-11.5974,-7.60954)" />
    <linearGradient
       x1="172.94208"
       y1="76.176224"
       x2="26.670298"
       y2="76.313133"
       id="linearGradient2258"
       xlink:href="#linearGradient4689"
       gradientUnits="userSpaceOnUse"
       gradientTransform="matrix(0.562541,0,0,0.567972,-11.5974,-7.60954)" />
    <radialGradient
       cx="61.518883"
       cy="132.28575"
       r="29.036913"
       fx="61.518883"
       fy="132.28575"
       id="radialGradient2801"
       xlink:href="#linearGradient2795"
       gradientUnits="userSpaceOnUse"
       gradientTransform="matrix(1,0,0,0.177966,0,108.7434)" />
    <linearGradient
       x1="150.96111"
       y1="192.35176"
       x2="112.03144"
       y2="137.27299"
       id="linearGradient1475"
       xlink:href="#linearGradient4671"
       gradientUnits="userSpaceOnUse"
       gradientTransform="matrix(0.562541,0,0,0.567972,-9.399749,-5.305317)" />
    <linearGradient
       x1="26.648937"
       y1="20.603781"
       x2="135.66525"
       y2="114.39767"
       id="linearGradient1478"
       xlink:href="#linearGradient4689"
       gradientUnits="userSpaceOnUse"
       gradientTransform="matrix(0.562541,0,0,0.567972,-9.399749,-5.305317)" />
    <radialGradient
       cx="61.518883"
       cy="132.28575"
       r="29.036913"
       fx="61.518883"
       fy="132.28575"
       id="radialGradient1480"
       xlink:href="#linearGradient2795"
       gradientUnits="userSpaceOnUse"
       gradientTransform="matrix(2.382716e-8,-0.296405,1.43676,4.683673e-7,-128.544,150.5202)" />
    <filter
       id="filter3787"
       inkscape:label="Lightness-Contrast"
       x="0"
       y="0"
       width="1"
       height="1"
       inkscape:menu="Color"
       inkscape:menu-tooltip="Increase or decrease lightness and contrast"
       color-interpolation-filters="sRGB">
      <feColorMatrix
         id="feColorMatrix3789"
         type="saturate"
         values="1"
         result="fbSourceGraphic" />
      <feColorMatrix
         id="feColorMatrix3791"
         in="fbSourceGraphic"
         values="-1 0 0 0 1 0 -1 0 0 1 0 0 -1 0 1 0 0 0 1 0 "
         result="fbSourceGraphic" />
      <feColorMatrix
         result="fbSourceGraphicAlpha"
         in="fbSourceGraphic"
         values="0 0 0 -1 0 0 0 0 -1 0 0 0 0 -1 0 0 0 0 1 0"
         id="feColorMatrix3793" />
      <feFlood
         id="feFlood3795"
         result="result1"
         flood-opacity="0"
         flood-color="rgb(128,128,128)"
         in="fbSourceGraphic" />
      <feBlend
         id="feBlend3797"
         in2="fbSourceGraphic"
         mode="normal"
         result="result2" />
      <feComposite
         id="feComposite3799"
         in2="fbSourceGraphic"
         k2="1"
         operator="arithmetic"
         result="result3" />
      <feComposite
         id="feComposite3801"
         in2="fbSourceGraphic"
         operator="in" />
    </filter>
    <filter
       id="filter3821"
       inkscape:label="Chalk and sponge"
       x="-0.3"
       y="-0.5"
       width="1.6"
       height="2"
       inkscape:menu="Distort"
       inkscape:menu-tooltip="Low turbulence gives sponge look and high turbulence chalk"
       color-interpolation-filters="sRGB">
      <feColorMatrix
         id="feColorMatrix3823"
         type="saturate"
         values="1"
         result="fbSourceGraphic" />
      <feColorMatrix
         id="feColorMatrix3825"
         in="fbSourceGraphic"
         values="-1 0 0 0 1 0 -1 0 0 1 0 0 -1 0 1 0 0 0 1 0 "
         result="fbSourceGraphic" />
      <feColorMatrix
         result="fbSourceGraphicAlpha"
         in="fbSourceGraphic"
         values="0 0 0 -1 0 0 0 0 -1 0 0 0 0 -1 0 0 0 0 1 0"
         id="feColorMatrix3827" />
      <feTurbulence
         id="feTurbulence3829"
         baseFrequency="0.4"
         type="fractalNoise"
         seed="0"
         numOctaves="5"
         result="result1"
         in="fbSourceGraphic" />
      <feOffset
         id="feOffset3831"
         dx="-5.9190031152648004"
         dy="-5"
         result="result2" />
      <feDisplacementMap
         id="feDisplacementMap3833"
         in2="result1"
         xChannelSelector="R"
         yChannelSelector="G"
         scale="30"
         in="fbSourceGraphic" />
    </filter>
    <filter
       id="filter3835"
       inkscape:label="Rough paper"
       x="-0.15"
       y="-0.15"
       width="1.3"
       height="1.3"
       inkscape:menu="Textures"
       inkscape:menu-tooltip="Aquarelle paper effect which can be used for pictures as for objects"
       color-interpolation-filters="sRGB">
      <feColorMatrix
         id="feColorMatrix3837"
         type="saturate"
         values="1"
         result="fbSourceGraphic" />
      <feColorMatrix
         id="feColorMatrix3839"
         in="fbSourceGraphic"
         values="-1 0 0 0 1 0 -1 0 0 1 0 0 -1 0 1 0 0 0 1 0 "
         result="fbSourceGraphic" />
      <feColorMatrix
         result="fbSourceGraphicAlpha"
         in="fbSourceGraphic"
         values="0 0 0 -1 0 0 0 0 -1 0 0 0 0 -1 0 0 0 0 1 0"
         id="feColorMatrix3841" />
      <feTurbulence
         id="feTurbulence3843"
         type="fractalNoise"
         baseFrequency="0.023268698060941829"
         numOctaves="3"
         seed="0"
         result="result4"
         in="fbSourceGraphic" />
      <feDisplacementMap
         id="feDisplacementMap3845"
         in2="result4"
         in="fbSourceGraphic"
         yChannelSelector="G"
         xChannelSelector="R"
         scale="10"
         result="result3" />
      <feDiffuseLighting
         id="feDiffuseLighting3847"
         lighting-color="rgb(233,230,215)"
         diffuseConstant="1"
         surfaceScale="2"
         result="result1"
         in="result4">
        <feDistantLight
           id="feDistantLight3849"
           azimuth="235"
           elevation="40" />
      </feDiffuseLighting>
      <feComposite
         id="feComposite3851"
         in2="result1"
         operator="in"
         in="result3"
         result="result2" />
      <feComposite
         id="feComposite3853"
         in2="result1"
         result="result5"
         operator="arithmetic"
         k1="1.7" />
      <feBlend
         id="feBlend3855"
         in2="result3"
         in="result5"
         mode="normal" />
    </filter>
    <linearGradient
       inkscape:collect="always"
       xlink:href="#linearGradient3904"
       id="linearGradient3910"
       x1="-331.07684"
       y1="535.05591"
       x2="384.82669"
       y2="-68.813263"
       gradientUnits="userSpaceOnUse" />
  </defs>
  <g
     inkscape:groupmode="layer"
     id="layer1"
     inkscape:label="bg"
     style="display:inline">
    <rect
       style="fill:url(#linearGradient3910);fill-opacity:1;stroke:#807f85;stroke-width:0.84931665999999983;stroke-linecap:butt;stroke-miterlimit:4;stroke-opacity:1;stroke-dasharray:none;stroke-dashoffset:0"
       id="rect3811"
       width="334.63077"
       height="327.83621"
       x="-12.454135"
       y="-12.114068" />
    <path
       style="fill:#ececec;opacity:0.32921811"
       d="m 39.468093,321.75113 c -2.97628,-3.47062 -4.97268,-6.72378 -4.97268,-8.10305 0,-2.37793 3.90617,-0.71381 6.81195,2.90205 10.12481,12.59898 29.68988,3.77722 40.60198,-18.30717 10.08501,-20.41048 6.47118,-40.06563 -10.9229,-59.40824 -4.62736,-5.14574 -9.94131,-8.60857 -15.78011,-10.28312 -7.62139,-2.18578 -11.89274,4.53768 -11.89274,18.7202 0,8.81985 -0.14595,9.47537 -2.52663,11.34801 -3.27785,2.57836 -4.29155,1.82645 -4.29155,-3.18322 0,-6.75615 -3.91192,-27.52823 -6.71762,-35.67024 -1.44645,-4.19751 -4.17286,-10.67456 -6.05868,-14.39345 -1.88582,-3.71889 -3.1769,-7.41798 -2.86905,-8.2202 1.13753,-2.96437 5.3249,-2.79761 13.48031,0.53684 4.36625,1.7852 8.662,2.96824 9.54612,2.62898 3.69929,-1.41955 9.44341,-15.26284 8.27116,-19.93345 -0.34871,-1.3894 -1.57592,-2.75885 -2.74666,-3.065 -2.8138,-0.73583 -1.91973,-3.10584 1.31731,-3.49192 2.21634,-0.26435 2.79943,0.29795 4.25134,4.09971 3.06186,8.01736 -0.58286,19.63678 -7.91341,25.22806 -3.93441,3.00092 -5.9865,3.08235 -12.06082,0.47859 -2.5662,-1.1 -5.07361,-2 -5.57204,-2 -0.49843,0 0.16605,2.3625 1.47662,5.25 3.91951,8.63563 6.38793,15.96517 7.07231,21 0.35511,2.6125 0.85683,4.75 1.11493,4.75 0.25811,0 1.82803,-1.54752 3.48872,-3.43894 7.67219,-8.73815 20.5638,-6.20902 32.14015,6.30538 5.79592,6.26557 13.77931,18.72157 13.77931,21.49902 0,0.83408 0.39188,1.7587 0.87084,2.05471 2.7851,1.72129 4.23157,20.59533 2.19037,28.58064 -3.00234,11.74533 -10.00838,23.84777 -18.37944,31.74919 l -5.56205,5.25 -12.83717,0 -12.83718,0 -2.47269,-2.88338 z m 183.660337,2.09862 c -1.39577,-2.25841 -1.75832,-13.98148 -0.65228,-21.09146 1.40164,-9.01009 4.79693,-14.29728 10.78914,-16.80099 3.01866,-1.26128 3.70246,-1.24332 5.83381,0.15319 5.78929,3.79329 14.10498,21.02098 12.86712,26.65694 -0.32531,1.48111 0.10567,4.31103 0.97249,6.38561 0.85618,2.04915 1.5567,4.12076 1.5567,4.60359 0,1.61888 -4.88849,0.8987 -5.9199,-0.87212 -0.97075,-1.66667 -1.02073,-1.66667 -1.04969,0 -0.0172,0.98898 -0.79143,1.74937 -1.78041,1.74856 -1.50399,-10e-4 -1.76957,-1.09071 -1.8892,-7.75 -0.0766,-4.26171 -0.70709,-9.77356 -1.40117,-12.24856 -0.69408,-2.475 -1.18145,-5.80769 -1.08303,-7.40599 0.21688,-3.5221 -3.25681,-7.59401 -6.47833,-7.59401 -3.02017,0 -6.08708,4.12174 -8.02364,10.78327 -1.75271,6.02909 -1.96691,17.24152 -0.38583,20.19581 0.55616,1.03919 1.0112,2.36902 1.0112,2.95518 0,1.2253 -3.63866,1.45942 -4.36698,0.28098 z m 60.97138,-3.96524 c -4.95728,-12.88843 -5.6044,-14.9421 -5.6044,-17.78588 0,-1.68527 -0.54,-3.60412 -1.2,-4.26412 -0.93333,-0.93333 -0.91837,-1.47778 0.0673,-2.45 1.75711,-1.7331 3.06508,0.2406 8.15836,12.31086 l 4.16377,9.86745 2.49417,-2.96416 c 4.85461,-5.76938 6.9578,-2.21274 2.40668,4.06989 -1.67965,2.3187 -2.81055,4.6096 -2.51309,5.09089 0.29745,0.48129 -0.96367,0.87507 -2.80249,0.87507 -3.06544,0 -3.49517,-0.3948 -5.17032,-4.75 z m 32.50508,-0.0354 c -1.06215,-2.08198 -3.50206,-8.26948 -5.42205,-13.75 -5.20499,-14.85751 -12.44459,-34.04127 -14.78704,-39.18327 -4.56497,-10.02072 -10.99918,-27.52986 -10.69569,-29.10573 0.77085,-4.00273 3.40518,-1.27287 7.06809,7.3244 5.58765,13.11485 8.21063,19.25309 11.11028,26 l 2.57864,6 0.0339,-6 c 0.0427,-7.55802 1.63282,-10.89425 5.39931,-11.32817 2.13247,-0.24567 3.71928,0.5085 6.31215,3 4.89866,4.70715 6.29294,7.90373 6.29294,14.42745 l 0,5.6986 -2.5838,-4.89894 c -3.19322,-6.05438 -7.20537,-10.39894 -9.6033,-10.39894 -3.62142,0 -2.02971,10.74147 5.7051,38.5 0.91953,3.3 1.98016,7.32584 2.35695,8.94632 l 0.68507,2.94632 1.69722,-3.44632 1.69721,-3.44632 0.0228,5.21482 c 0.0181,4.14668 -0.37342,5.42685 -1.91149,6.25 -3.08186,1.64936 -3.90586,1.26889 -5.95626,-2.75022 z M 182.07811,240.74717 c -1.9732,-2.68804 -3.85306,-6.21447 -4.17747,-7.83652 -0.53713,-2.68566 -0.13952,-3.23815 4.44968,-6.18304 5.65098,-3.62622 11.20692,-9.3782 13.68231,-14.16508 3.11436,-6.02251 -1.40721,-19.7161 -8.77282,-26.56847 -1.69055,-1.57275 -2.73676,-2.27147 -2.32492,-1.55271 1.12312,1.9601 -0.25851,6.19316 -2.02139,6.19316 -0.88612,0 -1.45155,-0.74553 -1.32726,-1.75 0.1191,-0.9625 -0.0513,-2.425 -0.37859,-3.25 -0.32733,-0.825 -0.73399,-2.31127 -0.90369,-3.30282 -0.60467,-3.53303 -2.31883,-1.68416 -2.937,3.16782 -0.99927,7.84315 -2.84506,9.43187 -4.51363,3.885 -0.61819,-2.05508 -0.63392,-4.53684 -0.0428,-6.75 0.51417,-1.925 1.14101,-6.54946 1.39296,-10.27657 0.37918,-5.60925 0.0993,-7.38474 -1.62501,-10.30716 -2.48094,-4.20493 -2.51004,-4.41627 -0.60807,-4.41627 1.76738,0 1.23497,-3.78869 -1.62806,-11.58529 -1.78952,-4.87323 -6.22088,-10.3741 -7.40402,-9.19097 -0.31073,0.31073 -0.94481,3.2523 -1.40908,6.53683 -0.96259,6.81004 -3.41169,12.23943 -5.52098,12.23943 -2.04043,0 -3.81684,-7.48726 -3.02663,-12.75676 0.45173,-3.01233 1.75018,-5.60604 4.1192,-8.22826 3.44521,-3.81344 3.47285,-3.82286 6.67705,-2.27746 3.12032,1.50494 8.7112,6.67957 8.72368,8.0742 0.003,0.37855 0.64776,1.91819 1.43195,3.42141 0.78418,1.50322 1.95882,6.22822 2.6103,10.5 0.65149,4.27178 2.25712,10.29814 3.56806,13.39192 1.31094,3.09377 2.38353,6.19907 2.38353,6.90066 0,0.70159 2.44681,3.64549 5.43735,6.542 5.47231,5.30022 8.25378,9.72308 10.51992,16.72788 0.94653,2.92576 1.5237,3.55013 2.51855,2.72448 2.04526,-1.69742 2.69913,1.50592 1.60658,7.87069 -0.52958,3.08508 -1.47912,9.49797 -2.11008,14.25086 -0.63097,4.75288 -1.78287,9.86682 -2.55977,11.3643 -0.7769,1.49748 -1.41255,3.19128 -1.41255,3.764 0,0.57271 -1.1479,2.54627 -2.55089,4.38569 -3.88263,5.09039 -7.32573,4.64269 -11.86641,-1.54295 z m 8.51813,-3.21349 c 2.7996,-2.7996 5.66467,-9.45321 6.43394,-14.94165 l 0.62478,-4.45752 -2.10132,3.12893 c -2.16395,3.22219 -7.47329,7.3046 -12.30823,9.46393 -3.29552,1.4718 -3.37982,2.2139 -0.68191,6.00277 2.44411,3.43243 5.13471,3.70157 8.03274,0.80354 z m -69.99965,1.80201 c -1.34493,-1.34493 -1.45929,-4.70118 -0.1602,-4.70118 0.51754,0 1.21985,0.45122 1.56069,1.0027 0.92844,1.50226 4.1121,-0.50726 11.49833,-7.25772 7.53562,-6.88699 10,-8.47475 10,-6.44285 0,0.75488 -2.00124,3.24821 -4.44719,5.54075 -2.44595,2.29253 -5.03786,4.95324 -5.75979,5.91268 -3.63304,4.82827 -10.56285,8.07461 -12.69184,5.94562 z m 195.56549,-3.36785 c -0.36667,-0.36666 -0.66667,-4.86666 -0.66667,-10 0,-5.13333 -0.41936,-9.33333 -0.93191,-9.33333 -0.51254,0 -1.89319,1.35 -3.06809,3 -2.6119,3.66808 -4.57358,3.83514 -5.42028,0.46159 -1.25573,-5.0032 5.05684,-13.5825 8.90684,-12.10512 2.28735,0.87774 5.50276,6.77361 5.53194,10.14353 l 0.026,3 1.9555,-2.5 1.95553,-2.5 0.0222,6.88197 c 0.017,5.25411 -0.47013,7.67863 -2.05932,10.25 -1.9262,3.11665 -4.65666,4.29648 -6.25177,2.70136 z M 114.2312,221.18326 c -2.4226,-1.77144 -2.16369,-3.29875 0.55921,-3.29875 1.47687,0 4.47846,-2.18346 8.42,-6.125 3.36875,-3.36875 6.836,-6.125 7.705,-6.125 2.39479,0 1.91582,1.36156 -1.67,4.74729 -1.7875,1.68775 -4.8126,4.7228 -6.72244,6.74454 -4.56849,4.83616 -6.16072,5.61519 -8.29177,4.05692 z m 126.70475,-29.66683 -3.58461,-7.11808 -2.73268,2.61808 c -3.02016,2.89349 -6.12325,3.45266 -6.12325,1.10339 0,-0.83307 1.51598,-3.1689 3.36884,-5.19072 l 3.36885,-3.67605 -4.96223,-11.05927 c -6.08794,-13.56813 -6.40132,-14.55927 -4.60338,-14.55927 1.62169,0 6.53589,7.8444 10.27157,16.39625 l 2.57565,5.89626 2.24035,-1.89626 c 1.23219,-1.04294 2.60021,-2.45875 3.04004,-3.14625 1.14512,-1.78994 3.70031,-1.54404 3.70031,0.3561 0,0.88335 -1.35,3.31061 -3,5.3939 -1.65,2.08329 -3,4.18603 -3,4.67275 0,0.48672 1.30737,3.98376 2.90526,7.7712 2.72566,6.46056 3.04969,9.55605 1.00032,9.55605 -0.48424,0 -2.49351,-3.20313 -4.46504,-7.11808 z m 27.7745,3.86808 c -1.68709,-2.04775 -6.01602,-12.39716 -8.61284,-20.5912 -1.33496,-4.21234 -5.55241,-15.7588 -9.37212,-25.6588 -12.09149,-31.33897 -17.55883,-47.57125 -16.40988,-48.7202 1.95517,-1.955174 3.8372,0.0152 6.08823,6.37393 1.23564,3.49045 2.84243,7.69627 3.57065,9.34627 1.11486,2.52605 3.61219,9.43858 10.80147,29.89813 l 1.01838,2.89813 1.86876,-5.00964 c 2.52744,-6.77538 4.79178,-8.70441 9.2383,-7.87024 4.57295,0.8579 10.81593,7.91019 13.66503,15.43653 2.71233,7.16505 3.62483,20.03331 1.93308,27.26074 -2.9783,12.72373 -10.01656,21.21531 -13.78906,16.63635 z m 9.30995,-20.50641 c 1.45004,-6.01764 1.55851,-8.20263 0.63542,-12.79905 -4.33607,-21.59086 -19.50169,-25.00006 -17.54709,-3.94454 0.35739,3.85 1.27094,8.22547 2.0301,9.72326 0.75915,1.49779 2.55769,5.99779 3.99675,10 4.94086,13.74123 4.1236,12.75234 6.79966,8.22757 1.28514,-2.17296 3.12346,-7.21622 4.08516,-11.20724 z m -203.853677,8.00641 c -0.30902,-1.5125 0.12109,-7.14689 0.9558,-12.52088 1.42833,-9.19575 1.41039,-9.99037 -0.30473,-13.5 -1.57483,-3.22256 -2.34715,-3.7722 -5.68553,-4.04623 -2.91909,-0.23962 -4.34599,0.20116 -5.83896,1.80368 -2.45876,2.63917 -4.20254,2.16173 -4.60933,-1.26202 -0.25839,-2.17476 0.35518,-2.9613 3.60235,-4.61788 4.31297,-2.20031 7.09408,-1.92781 11.47418,1.12427 5.45718,3.80261 7.80039,13.3197 5.73224,23.2819 -0.64463,3.10517 -0.97555,5.84227 -0.73538,6.08244 0.24016,0.24017 2.64198,-1.30538 5.33736,-3.43455 7.52471,-5.94402 9.30767,-6.68735 11.26735,-4.69745 1.51381,1.53714 1.41379,1.81792 -1.36666,3.8367 -1.65,1.19801 -3.96996,3.13261 -5.15548,4.29913 -3.46796,3.41238 -8.88199,6.40089 -11.59598,6.40089 -1.94119,0 -2.64364,-0.62776 -3.07723,-2.75 z M 189.99423,146.6326 c -0.34057,-0.55105 -0.31282,-5.17588 0.0617,-10.27741 0.80009,-10.89972 -0.028,-12.39095 -6.32004,-11.38116 -7.8885,1.266 -7.72489,1.29346 -8.03359,-1.34842 -0.32579,-2.78819 2.93983,-5.2916 8.29316,-6.35751 5.2321,-1.04177 8.97445,4.04348 10.11457,13.74406 0.54867,4.66839 0.90905,5.42176 2.26885,4.74313 0.88912,-0.44373 2.74158,-0.50975 4.11658,-0.14672 2.45178,0.64733 2.39118,0.76969 -3.1413,6.343 -5.95946,6.00344 -6.37805,6.26967 -7.35988,4.68103 z m 120.75788,-26.1979 c -1.46175,-1.77373 -6.2567,-12.74634 -6.2567,-14.31763 0,-1.771 2.52682,-2.55574 3.87814,-1.20442 0.82915,0.82915 1.14787,-1.34384 1.22154,-8.328144 0.11553,-10.953 0.83461,-14.31366 3.15844,-14.76119 2.62218,-0.50499 3.06641,3.50333 2.34375,21.148034 -0.45857,11.19658 -1.06217,16.55203 -1.96759,17.45745 -1.07147,1.07147 -1.49857,1.07253 -2.37758,0.006 z m -43.05064,-9.39647 c -0.49133,-0.87796 -0.68587,-4.82901 -0.4323,-8.78013 0.57841,-9.012774 -0.60905,-10.531704 -5.98205,-7.651944 -4.02133,2.15531 -4.79171,1.84202 -4.79171,-1.94864 0,-2.08809 0.85825,-3.07951 4.08405,-4.71773 4.90708,-2.49206 7.25314,-2.04485 10.07699,1.92088 1.53768,2.15947 2.15393,4.59774 2.23163,8.82968 l 0.10733,5.846394 4.17206,-4.539454 c 4.56396,-4.96585 7.59332,-5.49646 8.16997,-1.431 0.26635,1.877744 -1.0303,3.701134 -5.85945,8.239784 -6.37728,5.99365 -10.05175,7.31415 -11.77652,4.23216 z m -287.472657,-3.43347 c -4.46345,-1.12089 -8.04813,-3.23048 -12.4834,-7.34651 -2.59041,-2.403964 -3.25,-3.803814 -3.25,-6.897454 l 0,-3.88138 5.13186,4.48922 c 5.69846,4.98488 14.11709,8.677444 19.70712,8.643914 5.6595496,-0.034 11.8402896,-3.322654 14.4176496,-7.671454 1.23385,-2.08188 3.36837,-7.10131 4.74337,-11.15428 2.6672604,-7.86205 4.6557104,-9.42788 4.2574204,-3.35255 -0.66466,10.13837 -5.8393004,19.672464 -13.38885042,24.668524 -4.40999998,2.9184 -13.00288958,4.04194 -19.13516958,2.50197 z m 68.85744,-21.869874 c -2.25038,-2.48665 -1.25615,-9.38145 1.27985,-8.87545 1.10437,0.22035 1.6262,1.36413 1.61964,3.55008 -0.01,3.15875 0.8267,4.13908 1.96267,2.30104 1.20647,-1.95211 22.55962,-12.86465 23.1869,-11.84968 0.70428,1.13955 -6.38443,7.67584 -8.3899,7.73608 -0.6875,0.0206 -1.26904,0.60005 -1.29231,1.28755 -0.0471,1.39214 -12.54884,7.86635 -15.0527,7.79527 -0.87726,-0.0249 -2.36862,-0.9001 -3.31415,-1.94489 z m 87.596667,-16.44037 c -1.53161,-2.28801 -3.61318,-6.06025 -4.62572,-8.38276 -1.85048,-4.24459 -3.56179,-4.8299 -3.56179,-1.21824 0,1.06755 -0.45,1.94099 -1,1.94099 -0.55,0 -1,0.59081 -1,1.31291 0,2.95023 -5.41276,6.50864 -10.75,7.06716 -2.8875,0.30217 -5.25,0.20494 -5.25,-0.21607 0,-0.42101 -2.01153,-1.74275 -4.47007,-2.9372 -4.98264,-2.42075 -8.578807,-7.31293 -11.910197,-16.20247 -3.04371,-8.12188 -3.00777,-28.46875 0.0622,-35.18999 2.33739,-5.117427 5.71726,-7.9385367 8.818117,-7.3603097 1.1,0.20512 2.54684,0.407376 3.2152,0.449457 2.66087,0.167533 8.22607,6.4385557 11.81805,13.3169227 2.08508,3.99277 4.98247,8.49494 6.43863,10.00481 1.46682,1.52092 3.24257,5.08873 3.98172,8 1.37948,5.4333 8.43999,22.30895 10.24781,24.49377 0.56386,0.68144 1.40164,1.00634 1.86172,0.72199 1.05592,-0.65259 2.93687,2.77814 2.93687,5.35665 0,1.11258 -0.86432,2.17513 -2.01387,2.47575 -1.5352,0.40146 -2.67579,-0.46216 -4.79862,-3.63337 z m -16.90596,-4.57695 c 1.32646,-0.50433 3.15575,-2.48483 4.0651,-4.40114 2.07216,-4.36675 2.15237,-14.20146 0.14719,-18.04623 -0.82161,-1.57537 -1.49384,-3.22108 -1.49384,-3.65714 0,-1.42773 -11.57885,-21.61013 -13.71086,-23.898573 -2.91631,-3.130295 -7.16225,-2.491146 -9.433347,1.420023 -2.46784,4.24997 -4.02012,15.39481 -3.24293,23.28302 1.78734,18.14078 12.468637,29.55828 23.668687,25.30004 z m -77.266237,-0.33306 c 0.0322,-2.62805 1.39392,-3.59844 16.82141,-11.98719 5.5663,-3.0267 7.61668,-3.70942 8.49686,-2.82923 0.88019,0.88019 0.34395,1.87276 -2.22223,4.11328 -1.8603,1.62423 -3.81442,2.95314 -4.34249,2.95314 -0.52806,0 -2.15459,0.83567 -3.61449,1.85704 -4.51395,3.15804 -12.15125,7.14296 -13.68985,7.14296 -0.80549,0 -1.45763,-0.5625 -1.44921,-1.25 z M 195.9828,56.010076 c -1.36806,-3.09344 -2.48739,-5.80789 -2.48739,-6.03212 0,-0.22423 -0.64986,-1.96302 -1.44413,-3.86398 l -1.44413,-3.45629 -4.63878,1.98841 c -2.55132,1.09362 -5.50146,1.98841 -6.55587,1.98841 -1.0544,0 -1.91709,0.675 -1.91709,1.5 0,3.6483 -2.91873,-0.0206 -2.98635,-3.75394 -0.008,-0.41466 3.16923,-2.17711 7.05942,-3.91656 5.2168,-2.33261 6.94891,-3.57819 6.59996,-4.74606 -0.26021,-0.87089 -1.64309,-4.73149 -3.07307,-8.57911 -2.75212,-7.40509 -3.22915,-10.50433 -1.61681,-10.50433 1.12152,0 5.15236,7.67299 6.95329,13.23607 0.66521,2.05484 1.62279,3.99152 2.12796,4.30373 0.50516,0.31221 3.76477,-1.02408 7.24358,-2.96954 4.87042,-2.7237 6.59727,-3.26502 7.50855,-2.35373 0.65091,0.65091 1.18347,1.72847 1.18347,2.39457 0,1.5524 -5.48232,6.17439 -9.72146,8.19589 -1.8032,0.85989 -3.27689,2.04259 -3.27487,2.62822 0.002,0.58563 1.33654,4.43979 2.96558,8.56479 3.35127,8.48593 3.69824,11 1.51814,11 -0.87602,0 -2.55943,-2.36706 -4,-5.62443 z m 25.60675,-1.62557 c -1.52923,-3.4375 -3.7879,-9.625 -5.01926,-13.75 -1.23137,-4.125 -6.48975,-20.5147 -11.68531,-36.4215567 -9.13792,-27.9769293 -9.90171,-31.7564233 -6.12469,-30.3070443 1.33013,0.510421 5.58786,11.925991 12.83447,34.4110343 l 3.28166,10.1824367 1.70128,-3.799937 c 6.21453,-13.88058772 19.39842,-6.4185447 25.45225,14.405887 4.19977,14.44669 -3.43275,32.63037 -12.04866,28.7047 -1.91482,-0.87245 -2.36983,-0.72728 -2.79306,0.89112 -0.90928,3.47711 -2.76956,2.04282 -5.59868,-4.31664 z m 9.36667,-3.37334 c 0.89341,-0.34283 2.59041,-2.48033 3.77111,-4.75 3.07992,-5.92053 3.024,-16.46435 -0.12049,-22.71935 -3.98606,-7.92908 -10.52763,-9.90892 -13.50196,-4.08644 -2.99645,5.86578 -2.92325,8.85737 0.47653,19.47717 3.68264,11.50337 5.33294,13.62963 9.37481,12.07862 z M -17.618627,37.571916 c -3.42395,-6.42399 -11.53343,-14.55984 -15.5066,-15.55705 -1.5218,-0.38194 -2.37936,-1.32399 -2.37936,-2.61377 0,-1.72174 0.45322,-1.92595 3.09971,-1.39665 1.70484,0.34097 4.85484,2.01003 7,3.70903 3.71717,2.94405 3.90029,2.98733 3.90029,0.92172 0,-3.88936 2.21188,-1.54441 4.00269,4.2435 0.96325,3.11323 2.91041,7.63817 4.32701,10.05543 1.94455,3.31811 2.29322,4.67746 1.42298,5.5477 -1.90586,1.90586 -2.49816,1.41017 -5.86672,-4.90991 z m 262.114037,-2.81938 c 0,-0.55 0.45,-1.27811 1,-1.61803 0.55,-0.33992 1,-0.16804 1,0.38196 0,0.55 -0.45,1.27812 -1,1.61804 -0.55,0.33992 -1,0.16803 -1,-0.38197 z m -1,-4.11803 c 0,-0.55 0.45,-1 1,-1 0.55,0 1,0.45 1,1 0,0.55 -0.45,1 -1,1 -0.55,0 -1,-0.45 -1,-1 z m 28.21314,-11.07018 c -3.23159,-8.113395 -3.73191,-10.1772577 -2.57481,-10.6212767 0.78989,-0.303109 2.25221,0.187409 3.24961,1.0900397 1.73527,1.570399 1.83846,1.255038 2.39372,-7.3154687 0.76508,-11.809127 2.42208,-14.8213333 6.67369,-12.131871 1.24909,0.790139 1.28315,2.311576 0.24036,10.734687 -0.66825,5.397737 -1.21066,13.2647637 -1.20536,17.4822797 0.0112,8.87937 -0.52692,10.83179 -2.98529,10.83179 -1.3245,0 -2.80895,-2.58094 -5.79192,-10.07018 z m 34.78686,7.21141 c 0,-0.49018 1.29576,-1.15038 2.87946,-1.46712 1.58371,-0.31675 3.57657,-1.273 4.42858,-2.125 0.852,-0.85201 2.42615,-1.54911 3.49809,-1.54911 1.07194,0 2.50918,-0.675 3.19387,-1.5 0.68469,-0.825 1.86479,-1.5 2.62244,-1.5 1.81309,0 1.93874,7.96246 0.12756,8.08361 -11.46714,0.76701 -16.75,0.78518 -16.75,0.0576 z M -5.4904474,12.660916 c -1.13265,-2.116362 0.33963,-10.3347277 2.29878,-12.83201472 0.56335,-0.718082 1.20133,-4.76808198 1.41774,-8.99999998 0.3306,-6.4649253 0.0663,-8.2137083 -1.6539,-10.9443973 -1.44228,-2.289489 -2.80524,-3.25 -4.61172,-3.25 -3.2220596,0 -8.0352496,2.437605 -8.8124696,4.463015 -0.32439,0.845342 -1.53425,1.536985 -2.68857,1.536985 -4.51114,0 0.14329,-6.584324 6.75388,-9.55429 4.7229896,-2.121914 6.1189496,-1.822785 9.5431496,2.04491 5.51264,6.226627 7.50412,16.6308873 4.76941,24.91715428 C 0.84948258,2.0917043 0.51397258,3.9863983 0.78028258,4.2527083 1.0465926,4.5190173 3.4319726,3.3623283 6.0811226,1.6822863 c 2.64915,-1.68004102 7.2179904,-3.953082 10.1529804,-5.051201 9.71251,-3.633918 12.89954,-1.999016 4.01131,2.057749 -7.02492,3.206315 -12.2018104,6.482491 -18.4094904,11.6503907 -2.83772,2.362403 -5.40939,4.295279 -5.71482,4.295279 -0.30543,0 -1.03063,-0.888115 -1.61155,-1.973588 z M 136.85265,1.9217433 c -0.37447,-1.49201902 -0.16349,-5.17932 0.46885,-8.194003 0.9554,-4.5549093 0.89952,-5.8630573 -0.33063,-7.7405063 -1.88694,-2.879838 -7.69823,-4.04279 -12.15277,-2.432006 -3.60071,1.302033 -5.34269,0.811494 -5.34269,-1.504492 0,-2.994789 11.25433,-5.381954 16.03586,-3.401379 4.13167,1.711393 5.96414,5.685803 5.96414,12.9354873 0,3.327313 0.1125,6.044789 0.25,6.038836 0.1375,-0.006 2.45902,-0.680954 5.15893,-1.5 6.21239,-1.884595 7.2321,-1.867024 8.00145,0.137879 0.73643,1.919096 -1.97178,4.29469498 -4.94894,4.34114198 -1.12121,0.01749 -3.80385,0.93180302 -5.96144,2.03180302 -5.18097,2.64141 -6.32968,2.526783 -7.14276,-0.712761 z m 99.74059,-7.436462 c -0.60381,-1.732073 -1.09783,-5.9749303 -1.09783,-9.4285723 0,-4.375165 -0.47653,-6.755876 -1.57143,-7.850776 -1.88366,-1.883661 -1.68099,-1.869171 -4.99899,-0.35739 -2.36752,1.078717 -2.87436,0.954904 -4.54705,-1.110784 -3.79425,-4.685696 -1.4835,-8.103255 5.47892,-8.103255 2.81747,0 4.09357,0.725188 6.59882,3.75 1.70823,2.0625 3.67476,5.686243 4.37006,8.052763 1.25801,4.281713 1.27328,4.29272 3.12192,2.25 2.09929,-2.319688 6.07221,-2.734377 6.84723,-0.714706 0.71401,1.860677 -2.11937,7.375107 -4.92224,9.5798443 -1.28303,1.009233 -2.78165,3.015574 -3.33026,4.458534 -1.41521,3.722277 -4.56535,3.443935 -5.94915,-0.525658 z"
       id="path3803"
       inkscape:connector-curvature="0"
       inkscape:transform-center-x="193.64419"
       inkscape:transform-center-y="232.71276"
       transform="matrix(0.84931664,0,0,0.84931664,30.704722,30.507233)" />
    <rect
       style="opacity:0.26337448;fill:#ffffff;fill-opacity:1;stroke:none"
       id="rect4787"
       width="176"
       height="96"
       x="-379"
       y="-90" />
  </g>
  <g
     inkscape:groupmode="layer"
     id="layer4"
     inkscape:label="text"
     style="display:inline">
    <path
       style="font-size:72px;font-style:normal;font-variant:normal;font-weight:normal;font-stretch:normal;text-align:start;line-height:125%;letter-spacing:0px;word-spacing:0px;writing-mode:lr-tb;text-anchor:start;fill:#ececec;fill-opacity:1;stroke:none;display:inline;font-family:Liberation Sans;-inkscape-font-specification:Liberation Sans"
       d="m 82.210507,112.28581 c 0,18.0625 0,36.125 0,54.1875 6.99079,0.87621 12.7721,0.54293 10.34375,-8 0,-16.0625 0,-32.125 0,-48.1875 -2.88615,0.95087 -10.7466,-2.10452 -10.34375,2 z m 96.187503,0 c -0.29319,18.05593 0.57727,36.15693 -0.40625,54.1875 3.41197,-0.84217 10.45111,2.19816 10.40625,-2.46875 8.04154,6.4166 22.43229,3.02264 24.75,-7.6875 2.22934,-9.66492 2.89613,-21.98713 -4.6875,-29.46875 -5.5228,-4.1901 -14.10132,-4.27166 -19.71875,-0.1875 -1.16789,-4.95711 2.44316,-14.69316 -2,-16.375 -2.38027,0.84689 -9.16483,-1.92995 -8.34375,2 z m -128.625003,1.90625 c -7.11527,17.4268 -14.225,34.85587 -21.34375,52.28125 5.73887,-0.23198 13.29341,2.20413 13.63906,-5.93568 1.10959,-7.27054 5.10064,-10.3149 12.36094,-8.56432 6.73067,-0.65771 13.13144,-0.83262 13.75097,7.45306 0.58226,7.33482 5.73942,7.97503 11.96778,7.04694 3.63708,-1.78301 -3.61128,-10.95652 -4.37691,-15.74018 -5.06115,-12.59731 -10.12784,-25.1924 -15.18559,-37.79107 -3.1238,0.76208 -9.24718,-1.60826 -10.8125,1.25 z m 104.843753,9.5625 c -10.21358,-0.4412 -18.13747,8.94131 -18,18.78125 -1.05015,9.51385 2.4906,21.45267 12.90625,23.875 9.53118,2.72328 21.99188,-0.90148 24.5,-11.5625 -3.80126,-0.29531 -9.67256,-5.15665 -10.78125,0.34375 -4.32227,6.00997 -15.68459,3.4586 -15.75,-4.5625 0.56124,-4.16749 9.78889,-0.71312 13.78125,-1.84375 4.38781,-1.25802 14.5393,3.24764 13.03125,-3.90625 0.53332,-9.37804 -4.96118,-20.10446 -15.1875,-20.9375 -1.48819,-0.19735 -3.00042,-0.25211 -4.5,-0.1875 z m 80.125,0 c -2.32528,-0.0288 -4.94628,1.44808 -6.34375,2.625 -4.9e-4,-2.97163 -13.01371,-4.18099 -9.90625,1.96875 0.2921,12.70478 0.0426,25.41725 0.125,38.125 6.99079,0.87621 12.7721,0.54293 10.34375,-8 1.03668,-7.64569 -2.39615,-17.43985 2.90625,-23.875 2.39032,-1.96528 5.9087,-0.89252 8.53125,-0.0312 -0.68409,-4.00993 2.33679,-11.23482 -3.65625,-10.8125 -0.66379,-0.0591 -1.33556,-0.0449 -2,0 z m 23,0.0312 c -7.47552,-0.26436 -15.15198,4.91896 -15.43868,12.86253 0.72217,1.85232 11.38268,3.97467 10.84493,-0.51878 0.84039,-4.80384 8.38333,-4.49834 11.28125,-2 1.48319,1.94335 2.43748,6.84309 -1.74946,5.21338 -8.21799,-0.42816 -19.44679,1.14982 -21.56304,10.69287 -2.31716,7.82249 2.97505,17.27759 11.625,17.09375 5.17537,0.74558 11.00255,-1.76078 14.1875,-4.90625 2.34076,5.80669 9.86452,4.99503 14.78125,3.65625 -0.0663,-4.05754 1.46762,-9.63914 -4.0625,-7.3125 -3.02695,-0.33522 -0.73171,-5.90147 -1.5625,-7.75 -0.25896,-8.31746 2.3193,-20.28399 -6.75,-25.03125 -3.51957,-1.88546 -7.64901,-2.23678 -11.59375,-2 z m -146.0625,0.0625 c -9.70922,-0.32052 -15.391953,9.55925 -15.156253,18.25 -0.64888,8.95507 0.49705,21.58392 10.937503,24.15625 5.02281,1.41944 11.21497,-0.0701 14.84375,-2.84375 0.8041,4.97252 -2.88953,10.21058 -8.25,9.15625 -3.36937,0.0701 -6.08587,-2.265 -6.25,-5.6875 -3.36165,1.43272 -12.492823,-0.82561 -9.406253,4.84375 3.631023,10.80615 18.464783,11.85271 27.156253,7.0625 10.03455,-6.50098 6.33141,-20.43496 7.03125,-30.40625 0.14644,-7.97687 -0.35477,-15.9837 0.40625,-23.9375 -3.72422,0.14234 -10.34573,-1.28948 -10.59375,2.71875 -2.97448,-2.45467 -6.86759,-3.59115 -10.71875,-3.3125 z m -55.843753,3.8125 c 1.13019,4.70994 5.99271,11.95313 4.84375,15.09375 -6.18375,-0.0168 -15.26499,1.9517 -9.09804,-6.52798 1.23202,-1.45232 3.25226,-11.64153 4.25429,-8.56577 z m 99.375003,4.75 c 4.51578,-0.60418 8.04901,3.25318 8.3125,7.53125 -5.26777,-0.13519 -11.17173,0.26362 -16.0625,-0.1875 0.46017,-3.91007 3.5449,-7.50823 7.75,-7.34375 z m -41,0.125 c 8.14057,0.60489 8.92081,11.51564 7.625,17.75 -0.23091,5.99467 -7.7649,10.21534 -12.34375,6.34375 -3.83915,-5.94573 -3.04308,-14.26105 -1.03125,-20.78125 0.95213,-2.34304 3.31306,-3.3973 5.75,-3.3125 z m 82.75,0.0625 c 7.0649,-0.29971 7.10759,8.91842 6.96875,13.875 1.79391,7.41207 -4.91259,15.98205 -12.1875,10.46875 -4.45784,-5.58832 -3.42085,-14.1403 -1.46875,-20.59375 1.11951,-2.66557 3.91697,-3.86178 6.6875,-3.75 z m 68.71875,16.21875 c 0.48536,6.52136 -8.74578,12.84899 -13.8125,7.9375 -2.33792,-4.17161 1.08554,-9.02841 5.6875,-8.71875 2.28775,0.22502 7.94967,-1.50561 8.125,0.78125 z"
       id="text3539-8"
       inkscape:connector-curvature="0" />
    <text
       xml:space="preserve"
       style="font-size:72px;font-style:normal;font-variant:normal;font-weight:normal;font-stretch:normal;text-align:start;line-height:125%;letter-spacing:0px;word-spacing:0px;writing-mode:lr-tb;text-anchor:start;fill:#060329;fill-opacity:1;stroke:none;display:inline;font-family:Liberation Sans;-inkscape-font-specification:Liberation Sans"
       x="30.848469"
       y="164.40634"
       id="text3539"
       sodipodi:linespacing="125%"><tspan
         sodipodi:role="line"
         x="30.848469"
         y="164.40634"
         id="tspan3541"><tspan
           x="30.848469"
           y="164.40634"
           id="tspan3543"
           style="fill:#060329;fill-opacity:1">Algebra</tspan></tspan></text>
  </g>
</svg>
