<?xml version="1.0" encoding="UTF-8" standalone="no"?>
<!-- Created with Inkscape (http://www.inkscape.org/) -->

<svg
   xmlns:dc="http://purl.org/dc/elements/1.1/"
   xmlns:cc="http://creativecommons.org/ns#"
   xmlns:rdf="http://www.w3.org/1999/02/22-rdf-syntax-ns#"
   xmlns:svg="http://www.w3.org/2000/svg"
   xmlns="http://www.w3.org/2000/svg"
   xmlns:sodipodi="http://sodipodi.sourceforge.net/DTD/sodipodi-0.dtd"
   xmlns:inkscape="http://www.inkscape.org/namespaces/inkscape"
   width="1502.0126"
   height="776.12329"
   id="svg2989"
   version="1.1"
   inkscape:version="0.48.4 r9939"
   sodipodi:docname="linkbot_license.svg">
  <defs
     id="defs2991">
    <filter
       id="filter4043"
       inkscape:label="Relief print"
       inkscape:menu="Bumps"
       inkscape:menu-tooltip="Bumps effect with a bevel, color flood and complex lighting"
       color-interpolation-filters="sRGB">
      <feGaussianBlur
         id="feGaussianBlur4045"
         stdDeviation="0.43822269807280517 0.01"
         result="result8" />
      <feComposite
         id="feComposite4047"
         in2="result8"
         result="result6"
         in="SourceGraphic"
         operator="in" />
      <feComposite
         id="feComposite4049"
         in2="result6"
         operator="in"
         result="result11" />
      <feFlood
         id="feFlood4051"
         result="result10"
         in="result11"
         flood-opacity="1"
         flood-color="rgb(255,255,255)" />
      <feBlend
         id="feBlend4053"
         in2="result11"
         mode="multiply"
         in="result10"
         result="result12" />
      <feComposite
         id="feComposite4055"
         in2="SourceGraphic"
         result="fbSourceGraphic"
         operator="in"
         in="result12" />
      <feFlood
         id="feFlood4057"
         result="result6"
         flood-color="rgb(75,101,154)"
         in="fbSourceGraphic" />
      <feComposite
         id="feComposite4059"
         in2="result6"
         k3="0.3"
         k2="0.3"
         k1="0.5"
         operator="arithmetic"
         result="result2"
         in="fbSourceGraphic" />
      <feColorMatrix
         id="feColorMatrix4061"
         result="fbSourceGraphicAlpha"
         in="result2"
         values="1 0 0 -1 0 1 0 1 -1 0 1 0 0 -1 0 -0.8 -1 0 3.9 -2.7 "
         type="matrix" />
      <feGaussianBlur
         id="feGaussianBlur4063"
         result="result0"
         in="fbSourceGraphicAlpha"
         stdDeviation="1.9287846481876334" />
      <feDiffuseLighting
         id="feDiffuseLighting4065"
         lighting-color="rgb(255,255,255)"
         diffuseConstant="0.7"
         surfaceScale="50"
         result="result13"
         in="result0">
        <feDistantLight
           id="feDistantLight4067"
           elevation="20"
           azimuth="225" />
      </feDiffuseLighting>
      <feSpecularLighting
         id="feSpecularLighting4069"
         specularExponent="20"
         specularConstant="0.7"
         surfaceScale="10"
         lighting-color="rgb(255,255,255)"
         result="result1"
         in="result0">
        <feDistantLight
           id="feDistantLight4071"
           elevation="45"
           azimuth="225" />
      </feSpecularLighting>
      <feBlend
         id="feBlend4073"
         in2="SourceGraphic"
         mode="screen"
         result="result5"
         in="result13" />
      <feComposite
         id="feComposite4075"
         in2="result5"
         in="result1"
         k3="1"
         k2="1"
         operator="arithmetic"
         result="result9" />
      <feComposite
         id="feComposite4077"
         in2="SourceGraphic"
         operator="in" />
    </filter>
    <filter
       id="filter4362"
       inkscape:label="filter2">
      <feBlend
         blend="normal"
         id="feBlend4364"
         in2="SourceGraphic" />
    </filter>
    <filter
       id="filter4394"
       inkscape:label="Relief print"
       inkscape:menu="Bumps"
       inkscape:menu-tooltip="Bumps effect with a bevel, color flood and complex lighting"
       color-interpolation-filters="sRGB">
      <feGaussianBlur
         id="feGaussianBlur4396"
         stdDeviation="0.01"
         result="result8" />
      <feComposite
         id="feComposite4398"
         in2="result8"
         result="result6"
         in="SourceGraphic"
         operator="in"
         stdDeviation="0.10000000000000001" />
      <feComposite
         id="feComposite4400"
         in2="result6"
         operator="in"
         result="result11" />
      <feFlood
         id="feFlood4402"
         result="result10"
         in="result11"
         flood-opacity="1"
         flood-color="rgb(255,255,255)" />
      <feBlend
         id="feBlend4404"
         in2="result11"
         mode="multiply"
         in="result10"
         result="result12" />
      <feComposite
         id="feComposite4406"
         in2="SourceGraphic"
         result="fbSourceGraphic"
         operator="in"
         in="result12" />
      <feFlood
         id="feFlood4408"
         result="result6"
         flood-color="rgb(75,101,154)"
         in="fbSourceGraphic" />
      <feComposite
         id="feComposite4410"
         in2="result6"
         k3="0.3"
         k2="0.3"
         k1="0.5"
         operator="arithmetic"
         result="result2"
         in="fbSourceGraphic" />
      <feColorMatrix
         id="feColorMatrix4412"
         result="fbSourceGraphicAlpha"
         in="result2"
         values="1 0 0 -1 0 1 0 1 -1 0 1 0 0 -1 0 -0.8 -1 0 3.9 -2.7 "
         type="matrix" />
      <feGaussianBlur
         id="feGaussianBlur4414"
         result="result0"
         in="fbSourceGraphicAlpha"
         stdDeviation="0.20000000000000001" />
      <feDiffuseLighting
         id="feDiffuseLighting4416"
         lighting-color="rgb(255,255,255)"
         diffuseConstant="0.7"
         surfaceScale="622.71805273833661"
         result="result13"
         in="result0"
         kernelUnitLength="4.0099999999999998">
        <feDistantLight
           id="feDistantLight4418"
           elevation="20"
           azimuth="207" />
      </feDiffuseLighting>
      <feSpecularLighting
         id="feSpecularLighting4420"
         specularExponent="20"
         specularConstant="0.7"
         surfaceScale="10"
         lighting-color="rgb(255,255,255)"
         result="result1"
         in="result0"
         kernelUnitLength="4.0099999999999998">
        <feDistantLight
           id="feDistantLight4422"
           elevation="39"
           azimuth="225" />
      </feSpecularLighting>
      <feBlend
         id="feBlend4424"
         in2="SourceGraphic"
         mode="screen"
         result="result5"
         in="result13" />
      <feComposite
         id="feComposite4426"
         in2="result5"
         in="result1"
         k3="1"
         k2="1"
         operator="arithmetic"
         result="result9" />
      <feComposite
         id="feComposite4428"
         in2="SourceGraphic"
         operator="in" />
      <feGaussianBlur
         stdDeviation="0.01"
         id="feGaussianBlur4430" />
    </filter>
    <filter
       id="filter4737"
       inkscape:label="Emboss"
       inkscape:menu-tooltip="Emboss effect : Colors of the original images are preserved or modified by Blend"
       inkscape:menu="Bumps"
       height="1"
       width="1"
       y="0"
       x="0"
       color-interpolation-filters="sRGB">
      <feColorMatrix
         id="feColorMatrix4739"
         result="result2"
         type="luminanceToAlpha" />
      <feDiffuseLighting
         id="feDiffuseLighting4741"
         diffuseConstant="0.6"
         result="result1"
         surfaceScale="-10">
        <feDistantLight
           id="feDistantLight4743"
           azimuth="225"
           elevation="35" />
      </feDiffuseLighting>
      <feComposite
         id="feComposite4745"
         in2="SourceGraphic"
         result="result3"
         k3="0.5"
         k1="1.5"
         in="result1"
         operator="arithmetic" />
      <feComposite
         id="feComposite4747"
         in2="result3"
         result="result5"
         operator="in"
         in="result3" />
      <feBlend
         id="feBlend4749"
         in2="result1"
         result="result6"
         mode="normal"
         in="result5" />
      <feComposite
         id="feComposite4751"
         in2="result6"
         result="result7"
         operator="arithmetic"
         k2="1" />
      <feComposite
         id="feComposite4753"
         in2="SourceGraphic"
         in="result7"
         operator="in" />
    </filter>
    <filter
       id="filter4777"
       inkscape:menu-tooltip="Pressed metal with a rolled edge"
       inkscape:menu="Bevels"
       inkscape:label="Pressed steel"
       color-interpolation-filters="sRGB">
      <feGaussianBlur
         id="feGaussianBlur4779"
         result="result1"
         stdDeviation="1.8673993808049534" />
      <feBlend
         id="feBlend4781"
         in2="result1"
         result="result5"
         mode="multiply"
         in="result1" />
      <feGaussianBlur
         id="feGaussianBlur4783"
         in="result5"
         result="result6"
         stdDeviation="0.31956656346749229" />
      <feComposite
         id="feComposite4785"
         in2="result5"
         result="result8"
         in="result6"
         operator="xor" />
      <feComposite
         id="feComposite4787"
         in2="result8"
         in="result6"
         result="fbSourceGraphic"
         operator="xor" />
      <feSpecularLighting
         id="feSpecularLighting4789"
         in="fbSourceGraphic"
         result="result1"
         lighting-color="rgb(255,255,255)"
         surfaceScale="-308.35734870317003"
         specularConstant="2.2"
         specularExponent="59">
        <fePointLight
           id="fePointLight4791"
           x="-5000"
           y="-10000"
           z="20000" />
      </feSpecularLighting>
      <feComposite
         id="feComposite4793"
         in2="fbSourceGraphic"
         in="result1"
         result="result2"
         operator="in" />
      <feComposite
         id="feComposite4795"
         in2="result2"
         in="fbSourceGraphic"
         result="result4"
         operator="arithmetic"
         k2="2"
         k3="1" />
      <feComposite
         id="feComposite4797"
         in2="result4"
         in="result9"
         operator="in"
         result="result91" />
      <feBlend
         id="feBlend4799"
         in2="result91"
         mode="darken" />
    </filter>
  </defs>
  <sodipodi:namedview
     id="base"
     pagecolor="#ffffff"
     bordercolor="#666666"
     borderopacity="1.0"
     inkscape:pageopacity="0.0"
     inkscape:pageshadow="2"
     inkscape:zoom="0.49497475"
     inkscape:cx="344.56405"
     inkscape:cy="288.96342"
     inkscape:document-units="px"
     inkscape:current-layer="layer1"
     showgrid="false"
     fit-margin-top="20"
     fit-margin-left="20"
     fit-margin-right="20"
     fit-margin-bottom="20"
     inkscape:window-width="1366"
     inkscape:window-height="744"
     inkscape:window-x="0"
     inkscape:window-y="24"
     inkscape:window-maximized="1" />
  <metadata
     id="metadata2994">
    <rdf:RDF>
      <cc:Work
         rdf:about="">
        <dc:format>image/svg+xml</dc:format>
        <dc:type
           rdf:resource="http://purl.org/dc/dcmitype/StillImage" />
        <dc:title></dc:title>
      </cc:Work>
    </rdf:RDF>
  </metadata>
  <g
     inkscape:label="Layer 1"
     inkscape:groupmode="layer"
     id="layer1"
     transform="translate(385.29206,-58.586186)">
    <rect
       style="fill:#f3f3f2;stroke:#000000;stroke-width:3;stroke-linecap:butt;stroke-miterlimit:4;stroke-opacity:1;stroke-dasharray:none;stroke-dashoffset:0;fill-opacity:1"
       id="rect3789"
       width="1415.7144"
       height="705.71429"
       x="48.57143"
       y="38.980431"
       ry="62.246483"
       transform="translate(-385.29206,58.586186)" />
    <rect
       style="fill:#e9e9e7;stroke:#000000;stroke-width:0;stroke-linecap:butt;stroke-miterlimit:4;stroke-opacity:1;stroke-dasharray:none;stroke-dashoffset:0;fill-opacity:1;filter:url(#filter4043)"
       id="rect3789-8"
       width="1368.5714"
       height="665.71429"
       x="-313.14917"
       y="117.56662"
       ry="62.246483" />
    <path
       style="fill:#800000"
       d="m 434.34375,79.875 c -2.97457,-0.01027 -6.4226,0.589146 -10.59375,1.75 -3.75381,1.0447 -9.7378,3.95407 -9.75,4.75 -0.006,0.4125 -0.42936,0.75 -0.96875,0.75 -2.44283,0 -22.30056,14.81243 -26.8125,20 -7.97977,9.17469 -15.9709,18.74056 -17.53125,21 -18.64607,27.00017 -31.29617,53.35747 -32.625,68 -0.98525,10.85668 -0.67106,14.65033 1.875,22.65625 3.41765,10.74659 11.48206,19.64282 19.1875,21.21875 4.15825,0.85045 12.5658,0.77795 13.46875,-0.125 0.4125,-0.4125 1.55416,-0.75 2.5625,-0.75 1.00833,0 1.84375,-0.45 1.84375,-1 0,-0.55 1.18962,-1 2.625,-1 1.73819,0 4.42322,-1.67659 8.09375,-5.03125 3.03111,-2.77026 6.77421,-5.70452 8.3125,-6.5 1.5383,-0.79549 6.09229,-4.58302 10.125,-8.4375 4.03272,-3.85449 7.66859,-7.02625 8.0625,-7.03125 0.96169,-0.0117 8.4706,-6.65541 12.4375,-11 10.53402,-11.53697 19.55999,-22.17727 20.78125,-24.53125 1.77396,-3.4193 1.18259,-4.95632 -2.46875,-6.46875 -3.9929,-1.65391 -7.73472,0.722 -21.03125,13.40625 -19.77478,18.8642 -28.74534,26.94679 -32.40625,29.15625 -2.00979,1.21295 -4.86863,3.29815 -6.34375,4.65625 -3.90459,3.59486 -14.19516,9.41184 -17.84375,10.09375 -6.82261,1.27512 -10.80469,-6.85795 -8.46875,-17.3125 1.95687,-8.75799 3.39488,-13.56346 5.25,-17.625 1.03236,-2.26024 1.875,-4.38722 1.875,-4.75 0,-1.17868 17.23977,-36.10484 18.09375,-36.65625 0.45575,-0.29427 1.56905,-2.31546 2.46875,-4.46875 0.8997,-2.15329 3.1011,-5.71007 4.90625,-7.9375 1.80516,-2.22744 4.44987,-6.5375 5.875,-9.5625 1.47843,-3.13814 3.89797,-6.35886 5.625,-7.5 1.66476,-1.1 3.02925,-2.34122 3.03125,-2.75 0.005,-1.41499 8.49444,-11.746 9.65625,-11.75 0.64166,-0.002 1.31666,-0.33341 1.5,-0.75 0.69183,-1.57207 8.81052,-7.33979 12.9375,-9.1875 3.82787,-1.71379 4.58428,-1.76538 7.03125,-0.5 2.44101,1.2623 2.69839,1.84772 2.21875,5.1875 -0.72264,5.03175 -9.45466,22.90203 -13.28125,27.1875 -1.68454,1.88656 -3.0625,3.74609 -3.0625,4.125 0,0.37892 -2.70217,2.36981 -6,4.4375 -5.11891,3.20948 -6.13202,4.35641 -7.03125,7.875 -0.57933,2.26684 -1.27304,4.74051 -1.53125,5.5 -0.25821,0.7595 0.6804,2.897 2.09375,4.75 3.1347,4.10979 7.4241,4.56788 10.625,1.125 1.15052,-1.2375 6.45194,-9 11.78125,-17.25 18.04712,-27.93772 22.69684,-47.52647 12.96875,-54.71875 -2.71037,-2.003867 -5.73806,-3.018043 -9.5625,-3.03125 z m 277.6875,2.5625 c -0.77911,0.06751 -1.5663,0.758794 -3.15625,2.28125 -3.87241,3.70802 -7.52073,11.63799 -12.875,27.90625 -2.35324,7.15 -4.64159,13.9 -5.09375,15 -1.59073,3.86986 -4.90625,14.84901 -4.90625,16.25 0,1.30593 -4.51822,12.52131 -7.3125,18.15625 -0.65517,1.32123 -3.34479,4.69623 -6,7.5 -2.65521,2.80378 -6.25996,6.89375 -8,9.09375 -4.9688,6.28226 -28.7812,29.2401 -32.28125,31.125 -1.73568,0.93473 -3.88444,1.40663 -4.78125,1.0625 -2.32271,-0.89131 -2.14427,-10.33724 0.375,-20.1875 3.60341,-14.08918 2.04511,-19.5024 -6.625,-23.125 -4.85206,-2.02732 -6.21869,-1.75789 -9.71875,1.90625 -30.00843,31.41517 -45.7529,46.64954 -50.21875,48.625 -6.92287,3.06231 -9.43216,2.53765 -11.125,-2.375 -2.20716,-6.40523 0.009,-21.53125 3.15625,-21.53125 3.52595,0 22.39543,-21.42233 29.0625,-33 2.05869,-3.575 4.6098,-7.46536 5.65625,-8.625 1.04646,-1.15964 3.62208,-5.43464 5.71875,-9.5 2.09667,-4.06536 4.84314,-9.4 6.125,-11.875 1.28187,-2.475 3.15751,-5.56333 4.15625,-6.875 0.99874,-1.31167 1.8125,-3.12039 1.8125,-4 0,-0.87961 1.08939,-3.86628 2.40625,-6.625 3.5125,-7.35843 4.24693,-10.29112 4.5,-18.09375 0.18302,-5.64315 -0.16033,-7.48902 -1.6875,-9.375 L 609.3125,83.8125 603.75,86.125 c -3.39643,1.40774 -6.461,3.52274 -7.8125,5.40625 -1.22225,1.70339 -3.52476,4.12888 -5.09375,5.40625 C 589.27476,98.21486 588,99.78181 588,100.40625 c 0,0.62445 -1.54639,2.73931 -3.4375,4.6875 -3.3902,3.49253 -6.50785,7.86601 -20.9375,29.53125 -7.3236,10.99594 -16.14189,28.01616 -18.9375,36.5 -6.40487,19.43694 -11.13977,26.45246 -23.1875,34.46875 -4.55526,3.03096 -8.96698,5.76929 -9.8125,6.09375 -3.61988,1.38908 -4.38721,-8.02563 -1.1875,-14.5625 0.67305,-1.375 1.02662,-3.0625 0.78125,-3.75 -0.24537,-0.6875 0.042,-1.25 0.625,-1.25 1.52884,0 5.07784,-7.81133 5.75,-12.625 0.49305,-3.53102 0.25919,-4.3427 -1.75,-5.75 -3.05309,-2.13847 -6.07795,-2.07842 -9.03125,0.1875 -4.44089,3.40728 -5.53628,3.31946 -8.25,-0.78125 -3.44274,-5.20233 -7.87112,-5.98859 -16.6875,-2.9375 -7.53622,2.60806 -14.62533,6.06178 -17.65625,8.59375 -1.19006,0.99417 -3.62859,2.9375 -5.40625,4.3125 -6.09043,4.7109 -15.14492,15.21428 -19.5,22.625 -1.3356,2.27269 -3.06332,6.54769 -3.84375,9.5 -1.25904,4.76285 -1.22427,5.97018 0.21875,10.625 2.02901,6.54505 4.84007,9.23382 10.78125,10.34375 5.21446,0.97417 7.34608,0.16683 15.28125,-5.6875 2.56989,-1.89598 5.13177,-3.7509 5.6875,-4.15625 5.67467,-4.13914 10.5,-8.64788 10.5,-9.8125 0,-0.78818 0.68225,-1.4375 1.5,-1.4375 0.81774,0 3.73549,-2.25 6.5,-5 2.76451,-2.75 5.26669,-5 5.5625,-5 1.05096,0 3.4375,6.98417 3.4375,10.0625 0,6.20571 4.67021,10.9375 10.8125,10.9375 4.78755,0 21.70026,-10.27898 25.34375,-15.40625 0.36727,-0.51683 1.60477,-1.07522 2.75,-1.25 1.58528,-0.24193 2.09337,0.19803 2.09375,1.90625 8.1e-4,3.60034 3.93619,13.00987 6.625,15.84375 4.02995,4.24735 9.04907,5.23191 15.625,3.0625 4.44943,-1.46788 11.83746,-6.02881 14.75,-9.125 0.275,-0.29234 2.075,-1.73692 4,-3.1875 3.545,-2.67133 16.58762,-15.42968 23,-22.5 1.925,-2.12252 4.91357,-4.88461 6.65625,-6.125 2.88901,-2.05633 3.308,-2.09824 4.75,-0.65625 1.96844,1.96845 2.01097,4.73337 0.125,11 -1.94911,6.47637 -1.47293,21.71519 0.8125,26.125 1.86257,3.59389 5.23014,6.3125 7.84375,6.3125 3.93856,0 10.96878,-5.52126 25.5,-20.03125 8.42527,-8.41296 15.63353,-14.99148 16,-14.625 0.36648,0.36647 -0.36422,1.75171 -1.625,3.09375 -1.7462,1.85872 -2.1921,3.23167 -1.8125,5.75 0.31141,2.06595 -0.17252,4.61938 -1.28125,6.8125 -0.97583,1.93022 -3.39119,8.4148 -5.375,14.40625 -1.98382,5.99145 -4.03562,11.42765 -4.5625,12.0625 -0.52687,0.63484 -1.6138,3.60026 -2.40625,6.59375 -0.79245,2.99348 -2.77611,8.93978 -4.4375,13.21875 -5.69631,14.67105 -7.72424,26.15576 -5.15625,29.25 1.71148,2.0622 8.39888,1.88237 10.5625,-0.28125 0.9625,-0.9625 1.91697,-1.6375 2.09375,-1.5 0.80135,0.62327 2.08595,0.11607 3.875,-1.53125 1.06621,-0.98174 2.95633,-2.49064 4.1875,-3.34375 3.61385,-2.50411 17.49023,-15.88698 20.75,-20 10.19781,-12.86712 12.93205,-16.63798 15.5625,-21.5 1.62912,-3.01121 2.9375,-6.96535 2.9375,-8.875 0,-4.05341 -2.60474,-12.34392 -4.59375,-14.59375 -2.17148,-2.45623 -1.67871,-4.71721 1.40625,-6.3125 1.55256,-0.80286 3.47313,-2.22018 4.25,-3.15625 0.77687,-0.93607 3.22943,-2.83288 5.4375,-4.21875 2.20807,-1.38587 4.9,-3.35532 6,-4.34375 5.53984,-4.97798 12.97009,-10.875 13.6875,-10.875 0.70534,0 1.28216,4.01951 0.90625,6.28125 -0.072,0.43301 -0.16555,3.70414 -0.21875,7.25 -0.11432,7.62043 2.16206,12.8077 7.78125,17.75 9.59663,8.44061 18.79162,7.37338 34.84375,-4.0625 6.1863,-4.40726 7.95398,-6.61782 13.03125,-16.15625 3.19437,-6.00112 4.80429,-7.92077 7.75,-9.3125 2.04361,-0.96552 4.28368,-2.65302 4.96875,-3.75 0.68508,-1.09697 1.65325,-2 2.1875,-2 0.53425,0 4.69956,-3.825 9.25,-8.5 4.55043,-4.675 8.9157,-8.5 9.6875,-8.5 2.60718,0 2.9169,6.54325 0.5625,11.75 -6.34131,14.02384 -8.31977,24.47603 -5.875,30.90625 1.75672,4.62052 7.72372,11.13409 10.8125,11.8125 2.97275,0.65293 12.125,-1.16067 12.125,-2.40625 0,-0.39147 2.1375,-2.2358 4.75,-4.09375 2.6125,-1.85794 9.68816,-8.51613 15.71875,-14.78125 9.38941,-9.75456 18.01852,-17.1875 19.9375,-17.1875 0.29405,0 1.02106,0.93403 1.625,2.0625 0.91435,1.70848 0.52859,2.92146 -2.34375,7.25 -6.19716,9.33896 -7.98009,13.49005 -7.375,17.21875 1.00061,6.16607 2.91016,8.94676 6.34375,9.28125 2.78608,0.27141 4.41103,-0.95717 14.96875,-11.0625 10.65264,-10.19618 16.09221,-15.28695 27.375,-25.71875 4.52655,-4.18513 9.0463,-7.02625 11.21875,-7.03125 C 923.72782,175.12 926,180.2896 926,186 c 0,8.07939 2.67802,19.91214 5.21875,23.09375 2.88136,3.60817 5.19503,4.80744 10.5,5.53125 5.39918,0.73666 9.80684,-1.48877 17.65625,-8.9375 3.2252,-3.06057 6.1502,-5.5565 6.5,-5.5625 0.3498,-0.006 1.525,-1.17524 2.625,-2.59375 5.93447,-7.6528 22.94359,-23.40625 25.28125,-23.40625 2.1191,0 2.56488,2.522 2.78125,15.96875 0.27569,17.13365 2.72063,26.53313 8.3125,32.125 6.0581,6.0581 15.125,6.35723 15.125,0.5 0,-2.30821 -2.5388,-6.59491 -4.6875,-7.90625 -0.7207,-0.43983 -1.3125,-1.22841 -1.3125,-1.78125 0,-0.55285 -0.9902,-3.13643 -2.2188,-5.71875 -1.849,-3.88657 -2.2784,-6.58185 -2.4062,-15.6875 -0.085,-6.05 0.2862,-14.15 0.8125,-18 1.3644,-9.9812 1.1784,-12.53117 -1.0313,-15.4375 -3.8763,-5.09856 -12.11245,-2.19034 -22.06245,7.78125 -2.55396,2.5595 -9.23039,8.85295 -14.84375,13.96875 -5.61337,5.1158 -10.93781,10.5158 -11.84375,12 -2.22282,3.64162 -9.95238,10.03191 -13.0625,10.8125 -1.68996,0.42415 -3.07043,0.0864 -4.1875,-1.03125 -1.39755,-1.39824 -1.65625,-3.94719 -1.65625,-15.875 0,-16.23341 -0.89513,-19.57289 -6.1875,-22.84375 -5.36047,-3.31296 -12.00218,-2.1386 -20.4375,3.625 -3.65861,2.49981 -7.72505,5.55757 -9.0625,6.78125 -4.8742,4.45956 -12.16589,9.71875 -13.46875,9.71875 -0.97079,0 -1.34375,-1.68469 -1.34375,-6.1875 0,-5.10755 -0.4866,-6.90401 -2.71875,-10.125 -4.86264,-7.01679 -9.69341,-6.9519 -17.15625,0.1875 -2.66141,2.54606 -7.68426,7.1 -11.15625,10.125 -3.47199,3.025 -7.03929,6.32794 -7.90625,7.34375 -1.94705,2.28131 -11.18569,11.13999 -16.5625,15.875 -2.2,1.9374 -6.44081,4.57366 -9.40625,5.84375 L 820.71875,208.5 819,206.375 c -1.63356,-2.01737 -1.64318,-2.40861 0.0937,-7.4375 1.0079,-2.91814 1.857,-6.22895 1.875,-7.34375 0.018,-1.1148 1.80242,-4.4898 3.96875,-7.5 2.16632,-3.0102 5.31632,-7.40233 7,-9.75 3.64397,-5.08108 3.73195,-6.08673 0.875,-9.71875 -1.20001,-1.52557 -3.84022,-5.9639 -5.875,-9.875 -3.4571,-6.64497 -3.95302,-7.14692 -7.34375,-7.4375 -3.19556,-0.27386 -4.13957,0.24805 -8.09375,4.375 -2.4695,2.57739 -4.5,5.02244 -4.5,5.4375 0,0.41506 -2.44182,2.61324 -5.4375,4.875 -2.99569,2.26176 -6.48319,5.13318 -7.75,6.375 -1.26682,1.24182 -3.4375,3.03371 -4.8125,4 -1.375,0.9663 -3.55931,2.52229 -4.84375,3.4375 -2.89271,2.06117 -4.13305,0.63982 -4.15625,-4.75 -0.008,-1.95738 -0.66124,-4.43238 -1.46875,-5.5 -0.8075,-1.06762 -1.4825,-2.66558 -1.5,-3.5625 -0.0188,-0.96411 -2.35928,-2.80372 -5.71875,-4.5 -7.94986,-4.01409 -15.36111,-3.87083 -24.3125,0.5 -10.55611,5.15439 -12.23821,6.22997 -17.46875,10.90625 -2.74071,2.45029 -6.99931,5.82249 -9.4375,7.5 -2.43818,1.67751 -6.20007,4.76429 -8.375,6.875 -2.17494,2.1107 -4.50592,3.84375 -5.15625,3.84375 -1.15919,0 -8.34601,4.9178 -11.84375,8.09375 -3.12137,2.83421 -14.04741,7.98384 -14.96875,7.0625 -0.50503,-0.50503 0.004,-3.35286 1.1875,-6.71875 C 682.06968,192.34124 683,188.9364 683,188 c 0,-3.54733 16.69147,-39.18135 22.4375,-47.90625 4.57446,-6.94596 9.15486,-18.87995 12.09375,-31.46875 2.71106,-11.61291 1.39583,-22.19408 -3.125,-25.15625 -0.89997,-0.589684 -1.4894,-0.956154 -2.03125,-1.03125 -0.11289,-0.01565 -0.23245,-0.0096 -0.34375,0 z M 1023.5,99.625 c -3.0922,0.04422 -6.4,2.79998 -6.7188,5.9375 -0.4053,3.99112 1.0067,9.60525 2.9688,11.8125 3.2535,3.66011 8.4301,0.78143 10.25,-5.71875 1.118,-3.99306 1.019,-4.7597 -0.9062,-7.875 -1.1696,-1.89212 -3.0906,-3.68863 -4.2813,-4 -0.4234,-0.110727 -0.8708,-0.162567 -1.3125,-0.15625 z m -426.90625,13 c 0.30653,-0.0217 0.21533,0.5138 -0.0625,1.5 -1.07695,3.82271 -5.69046,12.87794 -9.65625,19 -5.67464,8.76003 -8.6077,13.20129 -11.59375,17.5625 -1.53325,2.23935 -3.23125,4.76466 -3.78125,5.59375 -0.55,0.82908 -2.575,3.68247 -4.5,6.34375 -1.925,2.66129 -4.53257,5.98598 -5.8125,7.40625 l -2.34375,2.59375 0.5625,-3.25 c 0.30303,-1.78428 1.37205,-4.93428 2.40625,-7 3.40961,-6.81042 17.63319,-29.85057 19.28125,-31.25 0.32386,-0.275 2.17677,-2.975 4.125,-6 1.94822,-3.025 5.45252,-7.3 7.78125,-9.5 2.14744,-2.02874 3.19965,-2.97204 3.59375,-3 z m 38.75,4.6875 C 632.66442,117.53107 628,121.39857 628,123.59375 c 0,2.19712 3.30607,11.00882 4.40625,11.75 1.89694,1.27794 5.00803,0.799 7.59375,-1.1875 5.09969,-3.91787 2.09993,-16.08632 -4.15625,-16.84375 -0.15915,-0.0193 -0.32138,-0.0146 -0.5,0 z m 449.50005,30.59375 c -2.1264,0.0446 -4.5537,0.3701 -7.3438,0.96875 -5.0941,1.09301 -14.5943,4.33864 -15.5,5.28125 -0.275,0.2862 -1.625,1.01764 -3,1.625 -7.4767,3.30262 -19.8033,15.34227 -26.625,26 -5.416,8.46135 -6.6388,12.48222 -6.1875,20.46875 0.365,6.45907 0.6573,7.35055 3.3437,9.5 3.3098,2.64801 8.1367,3.05852 13.5626,1.1875 7.544,-2.60155 28.5833,-18.82496 38.7812,-29.9375 3.9204,-4.27211 5.7525,-5.65386 6.5312,-4.875 0.6602,0.66008 0.9914,4.67622 0.8438,10.28125 -0.1928,7.32322 0.2121,10.67233 2.0312,16.34375 2.8306,8.82399 5.4308,12.64894 12.5,18.3125 4.3089,3.45194 7.1546,4.80971 12.9376,6.1875 4.0771,0.97142 8.0051,1.52382 8.7187,1.25 0.7136,-0.27382 2.8277,0.15816 4.6875,0.9375 1.8598,0.77934 3.6358,1.2872 3.9375,1.125 0.3016,-0.16221 5.4766,-0.4215 11.5,-0.5625 6.0233,-0.14101 12.2875,-0.60867 13.9375,-1.03125 1.65,-0.42258 5.925,-0.99145 9.5,-1.28125 13.949,-1.13074 33.6385,-4.4435 37.25,-6.25 4.2236,-2.11267 3.4342,-5.34276 -1.7812,-7.34375 -1.9114,-0.73327 -5.2995,-0.86251 -9.4688,-0.40625 -3.575,0.39123 -8.075,0.86742 -10,1.0625 -1.925,0.19508 -15.5302,0.52372 -30.25,0.75 -23.0685,0.35462 -27.7094,0.18502 -33.5312,-1.3125 -3.7151,-0.95557 -7.7272,-2.27518 -8.9063,-2.90625 -3.8048,-2.03626 -9.0744,-9.15001 -10.3437,-13.96875 -1.4796,-5.61586 -2.8045,-19.20695 -1.8126,-18.59375 1.1044,0.68243 1.8161,-1.03362 2.9688,-7.28125 0.5894,-3.19433 2.1024,-8.28601 3.375,-11.3125 2.7281,-6.48835 2.365,-10.30185 -1.1562,-11.90625 -1.9573,-0.89171 -2.9201,-0.78798 -4.625,0.40625 -2.8721,2.01154 -4.2592,1.89469 -7.625,-0.59375 -2.0123,-1.48769 -4.7065,-2.19932 -8.25,-2.125 z m -6.0626,19.28125 c 1.0106,0.065 1.2188,0.80337 1.2188,2.03125 0,2.41569 -8.9242,11.17807 -16.7188,16.4375 -2.8632,1.93203 -5.4744,3.95286 -5.8124,4.5 -0.3384,0.54714 -2.8073,2.13545 -5.5,3.5 -2.693,1.36454 -6.0643,2.46875 -7.4688,2.46875 l -2.5312,0 1.9374,-3.78125 c 2.3435,-4.59343 15.3895,-17.09903 20.1563,-19.3125 9.0998,-4.22553 13.0348,-5.95209 14.7187,-5.84375 z m -317.87495,4.125 c 5.92861,0.69131 7.61924,15.0232 2.875,24.46875 -4.90094,9.75756 -7.71532,13.26384 -13.03125,16.3125 -5.52297,3.16739 -9.56785,3.87846 -10.15625,1.78125 -0.19289,-0.6875 -0.93778,-3.20902 -1.65625,-5.59375 -1.95607,-6.49252 -0.10365,-15.97566 4.4375,-22.5625 4.93739,-7.1616 14.22482,-14.7918 17.53125,-14.40625 z M 484.1875,189.84375 c 1.61072,0.0759 2.8125,1.21605 2.8125,2.96875 0,2.11619 -14.19929,15.66177 -21.59375,20.59375 -3.79156,2.52891 -8.14375,4.88135 -9.65625,5.25 -2.42664,0.59146 -2.75,0.41508 -2.75,-1.71875 0,-2.5843 5.98104,-10.20552 13.84375,-17.59375 5.2176,-4.90275 12.07308,-9.61443 12.84375,-8.84375 0.27959,0.27959 1.53264,0.0997 2.78125,-0.375 0.60143,-0.22867 1.18184,-0.30655 1.71875,-0.28125 z m 190.71875,28.25 c 0.63037,0.0359 1.37147,0.65631 2.46875,1.53125 2.56055,2.0417 2.89911,2.93863 3,8.15625 0.0978,5.06015 -0.47837,7.15418 -4.28125,14.875 -2.43079,4.93513 -5.95554,10.68922 -7.8125,12.78125 -1.85695,2.09202 -3.87249,5.01702 -4.5,6.5 -0.6275,1.48297 -2.50111,4.15 -4.15625,5.9375 -2.85889,3.08751 -4.625,4.05972 -4.625,2.5625 0,-0.97863 4.91141,-15.16842 6.6875,-19.3125 0.82502,-1.925 2.30822,-5.3 3.28125,-7.5 0.97302,-2.2 3.17145,-8.5 4.90625,-14 2.80511,-8.89328 3.64444,-11.61012 5.03125,-11.53125 z"
       transform="translate(-385.29206,58.586186)"
       id="path2987"
       inkscape:connector-curvature="0"
       sodipodi:nodetypes="sscssssssssssssscssssssssssssssscccssssssssssssssssssssssssssssssssssssscccsssssssssssssssssssssssssssssssssssssssssssscssssssssscssssssssssscsssssssssssssssssssssscsssscssssssscsscsssssssssssssssscccscssssssssssssscssssssssssssssssccsccssssssscccssssssssscsssssssccscscccsscsssscssscccccccccscscccsccscssssssssssssssssssssssssssss" />
    <rect
       style="fill:#ffffff;fill-opacity:1;stroke:#807f85;stroke-width:1;stroke-linecap:butt;stroke-miterlimit:4;stroke-opacity:1;stroke-dasharray:none;stroke-dashoffset:0"
       id="rect4079"
       width="197.9899"
       height="129.29955"
       x="107.07617"
       y="105.38201"
       transform="translate(-385.29206,58.586186)"
       ry="0" />
    <text
       xml:space="preserve"
       style="font-size:111.91699219px;font-style:normal;font-variant:normal;font-weight:bold;font-stretch:normal;line-height:125%;letter-spacing:0px;word-spacing:0px;fill:#000000;fill-opacity:1;stroke:none;font-family:Impact;-inkscape-font-specification:Impact Bold"
       x="-266.34726"
       y="272.36774"
       id="text4081"
       sodipodi:linespacing="125%"
       transform="scale(1.0013299,0.99867186)"><tspan
         sodipodi:role="line"
         id="tspan4083"
         x="-266.34726"
         y="272.36774">BOT</tspan></text>
    <rect
       style="fill:#970000;fill-opacity:1;stroke:#807f85;stroke-width:1;stroke-linecap:butt;stroke-miterlimit:4;stroke-opacity:1;stroke-dasharray:none;stroke-dashoffset:0"
       id="rect4079-3"
       width="197.9899"
       height="129.29955"
       x="822.85034"
       y="172.04939"
       ry="0" />
    <text
       xml:space="preserve"
       style="font-size:99.5239563px;font-style:normal;font-variant:normal;font-weight:bold;font-stretch:normal;line-height:125%;letter-spacing:0px;word-spacing:0px;fill:#000000;fill-opacity:1;stroke:none;font-family:Impact;-inkscape-font-specification:Impact Bold"
       x="963.73645"
       y="243.58977"
       id="text4103"
       sodipodi:linespacing="125%"
       transform="scale(0.86952884,1.1500481)"><tspan
         sodipodi:role="line"
         id="tspan4105"
         x="963.73645"
         y="243.58977">2014</tspan></text>
    <g
       id="g3866"
       transform="matrix(8.174831,0,0,8.174831,-1343.7311,-1642.1501)">
      <g
         id="text3819"
         style="font-size:42.01595688px;font-style:normal;font-variant:normal;font-weight:600;font-stretch:normal;line-height:125%;letter-spacing:0px;word-spacing:0px;fill:#000000;fill-opacity:1;stroke:none;font-family:FreeSans;-inkscape-font-specification:FreeSans Semi-Bold">
        <path
           id="path3824"
           d="m 141.1424,252.12018 0,25.37764 14.66357,0 0,5.252 -20.96596,0 0,-30.62964 6.30239,0"
           inkscape:connector-curvature="0" />
        <path
           id="path3826"
           d="m 166.31587,260.0612 0,22.68862 -5.88224,0 0,-22.68862 5.88224,0 m 0,-7.94102 0,5.252 -5.88224,0 0,-5.252 5.88224,0"
           inkscape:connector-curvature="0" />
        <path
           id="path3828"
           d="m 171.95848,260.0612 5.88223,0 0,3.27724 c 1.62461,-2.4369 3.89347,-3.65536 6.80659,-3.65538 2.40889,2e-5 4.2716,0.68628 5.58812,2.05878 1.34449,1.37254 2.01674,3.30527 2.01676,5.7982 l 0,15.20978 -5.88223,0 0,-13.99132 c -2e-5,-2.71701 -1.26049,-4.07553 -3.78144,-4.07554 -1.42855,1e-5 -2.57699,0.40617 -3.4453,1.21846 -0.86834,0.81232 -1.30251,1.89073 -1.3025,3.23523 l 0,13.61317 -5.88223,0 0,-22.68862"
           inkscape:connector-curvature="0" />
        <path
           id="path3830"
           d="m 203.60831,268.88455 7.43683,-8.82335 6.68053,0 -7.73093,8.57126 8.27714,14.11736 -6.89062,0 -5.42005,-9.9998 -2.3529,2.56297 0,7.43683 -5.88223,0 0,-30.62964 5.88223,0 0,16.76437"
           inkscape:connector-curvature="0" />
        <path
           id="path3832"
           style="fill:#253c5c;fill-opacity:1"
           d="m 233.58472,259.68306 c 2.71702,2e-5 4.98588,1.13445 6.80659,3.40329 1.82067,2.24087 2.73101,5.11196 2.73104,8.61327 -3e-5,3.41731 -0.91037,6.27439 -2.73104,8.57126 -1.82071,2.29687 -4.08957,3.4453 -6.80659,3.4453 -2.77306,0 -4.85985,-1.09241 -6.26037,-3.27724 l 0,2.31088 -5.88224,0 0,-30.62964 5.88224,0 0,10.88214 c 1.40052,-2.21282 3.48731,-3.31924 6.26037,-3.31926 m 2.26887,6.93263 c -0.92437,-1.34449 -2.11482,-2.01675 -3.57136,-2.01677 -1.45657,2e-5 -2.64702,0.65827 -3.57136,1.97475 -0.92436,1.28851 -1.38653,2.96914 -1.38652,5.04192 -1e-5,2.15683 0.44816,3.89348 1.34451,5.20998 0.92434,1.3165 2.12879,1.97475 3.61337,1.97475 1.45654,0 2.64699,-0.65825 3.57136,-1.97475 0.92433,-1.3165 1.3865,-3.01114 1.38652,-5.08393 -2e-5,-2.10079 -0.46219,-3.80944 -1.38652,-5.12595"
           inkscape:connector-curvature="0" />
        <path
           id="path3834"
           d="m 260.75,260 0,5.53125 c 0.29288,0.25859 0.56502,0.55687 0.8125,0.90625 0.98035,1.31651 1.46873,3.10291 1.46875,5.34375 -2e-5,2.12882 -0.49163,3.87425 -1.5,5.21875 -0.98038,1.31651 -2.24392,1.96875 -3.8125,1.96875 -1.59662,0 -2.89463,-0.68673 -3.875,-2.03125 -0.98038,-1.3445 -1.46876,-3.09317 -1.46875,-5.25 -1e-5,-2.15681 0.48837,-3.90548 1.46875,-5.25 0.20739,-0.28441 0.42129,-0.52575 0.65625,-0.75 l 0,-5.65625 c -2.01295,0.47426 -3.69177,1.42233 -5.03125,2.875 -1.98875,2.12882 -2.96875,5.05585 -2.96875,8.78125 0,3.72542 0.98,6.68694 2.96875,8.84375 1.98875,2.12881 4.74866,3.1875 8.25,3.1875 3.44529,0 6.17072,-1.05869 8.1875,-3.1875 2.01675,-2.1288 3.03123,-5.01486 3.03125,-8.65625 -2e-5,-3.83744 -1.01127,-6.83993 -3,-8.96875 -1.35119,-1.48628 -3.07814,-2.44418 -5.1875,-2.90625 z"
           inkscape:connector-curvature="0" />
        <path
           id="path3836"
           d="m 283.51544,260.52338 0,3.90748 -3.27725,0 0,12.35269 c -10e-6,1.00839 0.12604,1.68064 0.37815,2.01677 0.25208,0.30812 0.77028,0.46218 1.55459,0.46217 0.3081,10e-6 0.75627,-0.042 1.34451,-0.12605 l 0,4.11757 c -0.95238,0.30811 -2.0868,0.46217 -3.40329,0.46217 -3.83747,0 -5.75619,-1.77867 -5.75619,-5.33602 l 0,-13.9493 -2.8991,0 0,-3.90748 2.8991,0 0,-6.09232 5.88223,0 0,6.09232 3.27725,0"
           inkscape:connector-curvature="0" />
      </g>
      <rect
         style="fill:#000000;fill-opacity:1;stroke:#000000;stroke-width:0;stroke-linecap:butt;stroke-miterlimit:4;stroke-opacity:1;stroke-dasharray:none;stroke-dashoffset:0"
         id="rect3802-0"
         width="3.3661165"
         height="13.415732"
         x="256.03571"
         y="256.27933"
         ry="0.86843204" />
    </g>
  </g>
</svg>
