<?xml version="1.0" encoding="UTF-8" standalone="no"?>
<!-- Created with Inkscape (http://www.inkscape.org/) -->

<svg
   xmlns:dc="http://purl.org/dc/elements/1.1/"
   xmlns:cc="http://creativecommons.org/ns#"
   xmlns:rdf="http://www.w3.org/1999/02/22-rdf-syntax-ns#"
   xmlns:svg="http://www.w3.org/2000/svg"
   xmlns="http://www.w3.org/2000/svg"
   xmlns:sodipodi="http://sodipodi.sourceforge.net/DTD/sodipodi-0.dtd"
   xmlns:inkscape="http://www.inkscape.org/namespaces/inkscape"
   width="149.07425"
   height="45.386395"
   id="svg2998"
   version="1.1"
   inkscape:version="0.48.4 r9939"
   sodipodi:docname="New document 2">
  <defs
     id="defs3000" />
  <sodipodi:namedview
     id="base"
     pagecolor="#ffffff"
     bordercolor="#666666"
     borderopacity="1.0"
     inkscape:pageopacity="0.0"
     inkscape:pageshadow="2"
     inkscape:zoom="2"
     inkscape:cx="5.3698545"
     inkscape:cy="-40.211647"
     inkscape:document-units="px"
     inkscape:current-layer="layer1"
     showgrid="false"
     fit-margin-top="0"
     fit-margin-left="0"
     fit-margin-right="0"
     fit-margin-bottom="0"
     inkscape:window-width="1366"
     inkscape:window-height="744"
     inkscape:window-x="0"
     inkscape:window-y="24"
     inkscape:window-maximized="1" />
  <metadata
     id="metadata3003">
    <rdf:RDF>
      <cc:Work
         rdf:about="">
        <dc:format>image/svg+xml</dc:format>
        <dc:type
           rdf:resource="http://purl.org/dc/dcmitype/StillImage" />
        <dc:title></dc:title>
      </cc:Work>
    </rdf:RDF>
  </metadata>
  <g
     inkscape:label="Layer 1"
     inkscape:groupmode="layer"
     id="layer1"
     transform="translate(-135.07149,-252.12018)">
    <text
       xml:space="preserve"
       style="font-size:15.9785099px;font-style:normal;font-variant:normal;font-weight:600;font-stretch:normal;line-height:125%;letter-spacing:0px;word-spacing:0px;fill:#000000;fill-opacity:1;stroke:none;font-family:FreeSans;-inkscape-font-specification:FreeSans Semi-Bold"
       x="133.79321"
       y="297.13907"
       id="text3804"
       sodipodi:linespacing="125%"><tspan
         sodipodi:role="line"
         id="tspan3806"
         x="133.79321"
         y="297.13907">Educational Robots</tspan></text>
    <g
       id="g3866"
       transform="translate(0.23148368,0)">
      <g
         id="text3819"
         style="font-size:42.01595688px;font-style:normal;font-variant:normal;font-weight:600;font-stretch:normal;line-height:125%;letter-spacing:0px;word-spacing:0px;fill:#000000;fill-opacity:1;stroke:none;font-family:FreeSans;-inkscape-font-specification:FreeSans Semi-Bold">
        <path
           id="path3824"
           d="m 141.1424,252.12018 0,25.37764 14.66357,0 0,5.252 -20.96596,0 0,-30.62964 6.30239,0"
           inkscape:connector-curvature="0" />
        <path
           id="path3826"
           d="m 166.31587,260.0612 0,22.68862 -5.88224,0 0,-22.68862 5.88224,0 m 0,-7.94102 0,5.252 -5.88224,0 0,-5.252 5.88224,0"
           inkscape:connector-curvature="0" />
        <path
           id="path3828"
           d="m 171.95848,260.0612 5.88223,0 0,3.27724 c 1.62461,-2.4369 3.89347,-3.65536 6.80659,-3.65538 2.40889,2e-5 4.2716,0.68628 5.58812,2.05878 1.34449,1.37254 2.01674,3.30527 2.01676,5.7982 l 0,15.20978 -5.88223,0 0,-13.99132 c -2e-5,-2.71701 -1.26049,-4.07553 -3.78144,-4.07554 -1.42855,1e-5 -2.57699,0.40617 -3.4453,1.21846 -0.86834,0.81232 -1.30251,1.89073 -1.3025,3.23523 l 0,13.61317 -5.88223,0 0,-22.68862"
           inkscape:connector-curvature="0" />
        <path
           id="path3830"
           d="m 203.60831,268.88455 7.43683,-8.82335 6.68053,0 -7.73093,8.57126 8.27714,14.11736 -6.89062,0 -5.42005,-9.9998 -2.3529,2.56297 0,7.43683 -5.88223,0 0,-30.62964 5.88223,0 0,16.76437"
           inkscape:connector-curvature="0" />
        <path
           id="path3832"
           style="fill:#253c5c;fill-opacity:1"
           d="m 233.58472,259.68306 c 2.71702,2e-5 4.98588,1.13445 6.80659,3.40329 1.82067,2.24087 2.73101,5.11196 2.73104,8.61327 -3e-5,3.41731 -0.91037,6.27439 -2.73104,8.57126 -1.82071,2.29687 -4.08957,3.4453 -6.80659,3.4453 -2.77306,0 -4.85985,-1.09241 -6.26037,-3.27724 l 0,2.31088 -5.88224,0 0,-30.62964 5.88224,0 0,10.88214 c 1.40052,-2.21282 3.48731,-3.31924 6.26037,-3.31926 m 2.26887,6.93263 c -0.92437,-1.34449 -2.11482,-2.01675 -3.57136,-2.01677 -1.45657,2e-5 -2.64702,0.65827 -3.57136,1.97475 -0.92436,1.28851 -1.38653,2.96914 -1.38652,5.04192 -1e-5,2.15683 0.44816,3.89348 1.34451,5.20998 0.92434,1.3165 2.12879,1.97475 3.61337,1.97475 1.45654,0 2.64699,-0.65825 3.57136,-1.97475 0.92433,-1.3165 1.3865,-3.01114 1.38652,-5.08393 -2e-5,-2.10079 -0.46219,-3.80944 -1.38652,-5.12595"
           inkscape:connector-curvature="0" />
        <path
           id="path3834"
           d="m 260.75,260 0,5.53125 c 0.29288,0.25859 0.56502,0.55687 0.8125,0.90625 0.98035,1.31651 1.46873,3.10291 1.46875,5.34375 -2e-5,2.12882 -0.49163,3.87425 -1.5,5.21875 -0.98038,1.31651 -2.24392,1.96875 -3.8125,1.96875 -1.59662,0 -2.89463,-0.68673 -3.875,-2.03125 -0.98038,-1.3445 -1.46876,-3.09317 -1.46875,-5.25 -1e-5,-2.15681 0.48837,-3.90548 1.46875,-5.25 0.20739,-0.28441 0.42129,-0.52575 0.65625,-0.75 l 0,-5.65625 c -2.01295,0.47426 -3.69177,1.42233 -5.03125,2.875 -1.98875,2.12882 -2.96875,5.05585 -2.96875,8.78125 0,3.72542 0.98,6.68694 2.96875,8.84375 1.98875,2.12881 4.74866,3.1875 8.25,3.1875 3.44529,0 6.17072,-1.05869 8.1875,-3.1875 2.01675,-2.1288 3.03123,-5.01486 3.03125,-8.65625 -2e-5,-3.83744 -1.01127,-6.83993 -3,-8.96875 -1.35119,-1.48628 -3.07814,-2.44418 -5.1875,-2.90625 z"
           inkscape:connector-curvature="0" />
        <path
           id="path3836"
           d="m 283.51544,260.52338 0,3.90748 -3.27725,0 0,12.35269 c -10e-6,1.00839 0.12604,1.68064 0.37815,2.01677 0.25208,0.30812 0.77028,0.46218 1.55459,0.46217 0.3081,10e-6 0.75627,-0.042 1.34451,-0.12605 l 0,4.11757 c -0.95238,0.30811 -2.0868,0.46217 -3.40329,0.46217 -3.83747,0 -5.75619,-1.77867 -5.75619,-5.33602 l 0,-13.9493 -2.8991,0 0,-3.90748 2.8991,0 0,-6.09232 5.88223,0 0,6.09232 3.27725,0"
           inkscape:connector-curvature="0" />
      </g>
      <rect
         style="fill:#000000;fill-opacity:1;stroke:#000000;stroke-width:0;stroke-linecap:butt;stroke-miterlimit:4;stroke-opacity:1;stroke-dasharray:none;stroke-dashoffset:0"
         id="rect3802-0"
         width="3.3661165"
         height="13.415732"
         x="256.03571"
         y="256.27933"
         ry="0.86843204" />
    </g>
  </g>
</svg>
