<?xml version="1.0" encoding="UTF-8" standalone="no"?>
<!-- Created with Inkscape (http://www.inkscape.org/) -->

<svg
   xmlns:dc="http://purl.org/dc/elements/1.1/"
   xmlns:cc="http://creativecommons.org/ns#"
   xmlns:rdf="http://www.w3.org/1999/02/22-rdf-syntax-ns#"
   xmlns:svg="http://www.w3.org/2000/svg"
   xmlns="http://www.w3.org/2000/svg"
   xmlns:xlink="http://www.w3.org/1999/xlink"
   xmlns:sodipodi="http://sodipodi.sourceforge.net/DTD/sodipodi-0.dtd"
   xmlns:inkscape="http://www.inkscape.org/namespaces/inkscape"
   version="1.0"
   width="488.73123"
   height="488.7251"
   id="svg2"
   sodipodi:version="0.32"
   inkscape:version="0.48.4 r9939"
   sodipodi:docname="linkbot-drivers-ed-js.svg">
  <metadata
     id="metadata2193">
    <rdf:RDF>
      <cc:Work
         rdf:about="">
        <dc:format>image/svg+xml</dc:format>
        <dc:type
           rdf:resource="http://purl.org/dc/dcmitype/StillImage" />
        <dc:title></dc:title>
      </cc:Work>
    </rdf:RDF>
  </metadata>
  <sodipodi:namedview
     inkscape:window-height="753"
     inkscape:window-width="1280"
     inkscape:pageshadow="2"
     inkscape:pageopacity="0.0"
     borderopacity="1.0"
     bordercolor="#666666"
     pagecolor="#ffffff"
     id="base"
     inkscape:zoom="0.9274914"
     inkscape:cx="71.255849"
     inkscape:cy="177.13244"
     inkscape:window-x="-2"
     inkscape:window-y="-3"
     inkscape:current-layer="svg2"
     showgrid="false"
     inkscape:window-maximized="1"
     inkscape:snap-page="false"
     fit-margin-top="98"
     fit-margin-left="0"
     fit-margin-right="0"
     fit-margin-bottom="98" />
  <defs
     id="defs4">
    <linearGradient
       id="linearGradient2795">
      <stop
         style="stop-color:#b8b8b8;stop-opacity:0.49803922"
         offset="0"
         id="stop2797" />
      <stop
         style="stop-color:#7f7f7f;stop-opacity:0"
         offset="1"
         id="stop2799" />
    </linearGradient>
    <linearGradient
       id="linearGradient2787">
      <stop
         style="stop-color:#7f7f7f;stop-opacity:0.5"
         offset="0"
         id="stop2789" />
      <stop
         style="stop-color:#7f7f7f;stop-opacity:0"
         offset="1"
         id="stop2791" />
    </linearGradient>
    <linearGradient
       id="linearGradient3676">
      <stop
         style="stop-color:#b2b2b2;stop-opacity:0.5"
         offset="0"
         id="stop3678" />
      <stop
         style="stop-color:#b3b3b3;stop-opacity:0"
         offset="1"
         id="stop3680" />
    </linearGradient>
    <linearGradient
       id="linearGradient3236">
      <stop
         style="stop-color:#f4f4f4;stop-opacity:1"
         offset="0"
         id="stop3244" />
      <stop
         style="stop-color:#ffffff;stop-opacity:1"
         offset="1"
         id="stop3240" />
    </linearGradient>
    <linearGradient
       id="linearGradient4671">
      <stop
         style="stop-color:#ffd43b;stop-opacity:1"
         offset="0"
         id="stop4673" />
      <stop
         style="stop-color:#ffe873;stop-opacity:1"
         offset="1"
         id="stop4675" />
    </linearGradient>
    <linearGradient
       id="linearGradient4689">
      <stop
         style="stop-color:#5a9fd4;stop-opacity:1"
         offset="0"
         id="stop4691" />
      <stop
         style="stop-color:#306998;stop-opacity:1"
         offset="1"
         id="stop4693" />
    </linearGradient>
    <linearGradient
       x1="224.23996"
       y1="144.75717"
       x2="-65.308502"
       y2="144.75717"
       id="linearGradient2987"
       xlink:href="#linearGradient4671"
       gradientUnits="userSpaceOnUse"
       gradientTransform="translate(100.2702,99.61116)" />
    <linearGradient
       x1="172.94208"
       y1="77.475983"
       x2="26.670298"
       y2="76.313133"
       id="linearGradient2990"
       xlink:href="#linearGradient4689"
       gradientUnits="userSpaceOnUse"
       gradientTransform="translate(100.2702,99.61116)" />
    <linearGradient
       x1="172.94208"
       y1="77.475983"
       x2="26.670298"
       y2="76.313133"
       id="linearGradient2587"
       xlink:href="#linearGradient4689"
       gradientUnits="userSpaceOnUse"
       gradientTransform="translate(100.2702,99.61116)" />
    <linearGradient
       x1="224.23996"
       y1="144.75717"
       x2="-65.308502"
       y2="144.75717"
       id="linearGradient2589"
       xlink:href="#linearGradient4671"
       gradientUnits="userSpaceOnUse"
       gradientTransform="translate(100.2702,99.61116)" />
    <linearGradient
       x1="172.94208"
       y1="77.475983"
       x2="26.670298"
       y2="76.313133"
       id="linearGradient2248"
       xlink:href="#linearGradient4689"
       gradientUnits="userSpaceOnUse"
       gradientTransform="translate(100.2702,99.61116)" />
    <linearGradient
       x1="224.23996"
       y1="144.75717"
       x2="-65.308502"
       y2="144.75717"
       id="linearGradient2250"
       xlink:href="#linearGradient4671"
       gradientUnits="userSpaceOnUse"
       gradientTransform="translate(100.2702,99.61116)" />
    <linearGradient
       x1="224.23996"
       y1="144.75717"
       x2="-65.308502"
       y2="144.75717"
       id="linearGradient2255"
       xlink:href="#linearGradient4671"
       gradientUnits="userSpaceOnUse"
       gradientTransform="matrix(0.562541,0,0,0.567972,-11.5974,-7.60954)" />
    <linearGradient
       x1="172.94208"
       y1="76.176224"
       x2="26.670298"
       y2="76.313133"
       id="linearGradient2258"
       xlink:href="#linearGradient4689"
       gradientUnits="userSpaceOnUse"
       gradientTransform="matrix(0.562541,0,0,0.567972,-11.5974,-7.60954)" />
    <radialGradient
       cx="61.518883"
       cy="132.28575"
       r="29.036913"
       fx="61.518883"
       fy="132.28575"
       id="radialGradient2801"
       xlink:href="#linearGradient2795"
       gradientUnits="userSpaceOnUse"
       gradientTransform="matrix(1,0,0,0.177966,0,108.7434)" />
    <linearGradient
       x1="150.96111"
       y1="192.35176"
       x2="112.03144"
       y2="137.27299"
       id="linearGradient1475"
       xlink:href="#linearGradient4671"
       gradientUnits="userSpaceOnUse"
       gradientTransform="matrix(0.562541,0,0,0.567972,-9.399749,-5.305317)" />
    <linearGradient
       x1="26.648937"
       y1="20.603781"
       x2="135.66525"
       y2="114.39767"
       id="linearGradient1478"
       xlink:href="#linearGradient4689"
       gradientUnits="userSpaceOnUse"
       gradientTransform="matrix(0.562541,0,0,0.567972,-9.399749,-5.305317)" />
    <radialGradient
       cx="61.518883"
       cy="132.28575"
       r="29.036913"
       fx="61.518883"
       fy="132.28575"
       id="radialGradient1480"
       xlink:href="#linearGradient2795"
       gradientUnits="userSpaceOnUse"
       gradientTransform="matrix(2.382716e-8,-0.296405,1.43676,4.683673e-7,-128.544,150.5202)" />
  </defs>
  <text
     xml:space="preserve"
     style="font-size:64.39655304px;font-style:normal;font-variant:normal;font-weight:bold;font-stretch:normal;text-align:start;line-height:125%;letter-spacing:0px;word-spacing:0px;writing-mode:lr-tb;text-anchor:start;fill:#000000;fill-opacity:1;stroke:none;font-family:Liberation Sans;-inkscape-font-specification:Liberation Sans Bold"
     x="155.42876"
     y="219.63136"
     id="text3349"
     sodipodi:linespacing="125%"
     inkscape:export-filename="/home/harris/projects/br/share/src/LinkbotLabs/html/linkbot-drivers-ed-python.png"
     inkscape:export-xdpi="151.00926"
     inkscape:export-ydpi="151.00926"><tspan
       sodipodi:role="line"
       id="tspan3351"
       x="155.42876"
       y="219.63136"
       style="font-size:64.39655304px;font-style:normal;font-variant:normal;font-weight:bold;font-stretch:normal;text-align:start;line-height:125%;writing-mode:lr-tb;text-anchor:start;font-family:Liberation Sans;-inkscape-font-specification:Liberation Sans Bold">Driver's Ed</tspan></text>
  <g
     id="g3866"
     transform="matrix(1.6420422,0,0,1.6420422,-221.41299,-315.99198)">
    <g
       id="text3819"
       style="font-size:42.01595688px;font-style:normal;font-variant:normal;font-weight:600;font-stretch:normal;line-height:125%;letter-spacing:0px;word-spacing:0px;fill:#000000;fill-opacity:1;stroke:none;font-family:FreeSans;-inkscape-font-specification:FreeSans Semi-Bold">
      <path
         id="path3824"
         d="m 141.1424,252.12018 0,25.37764 14.66357,0 0,5.252 -20.96596,0 0,-30.62964 6.30239,0"
         inkscape:connector-curvature="0" />
      <path
         id="path3826"
         d="m 166.31587,260.0612 0,22.68862 -5.88224,0 0,-22.68862 5.88224,0 m 0,-7.94102 0,5.252 -5.88224,0 0,-5.252 5.88224,0"
         inkscape:connector-curvature="0" />
      <path
         id="path3828"
         d="m 171.95848,260.0612 5.88223,0 0,3.27724 c 1.62461,-2.4369 3.89347,-3.65536 6.80659,-3.65538 2.40889,2e-5 4.2716,0.68628 5.58812,2.05878 1.34449,1.37254 2.01674,3.30527 2.01676,5.7982 l 0,15.20978 -5.88223,0 0,-13.99132 c -2e-5,-2.71701 -1.26049,-4.07553 -3.78144,-4.07554 -1.42855,1e-5 -2.57699,0.40617 -3.4453,1.21846 -0.86834,0.81232 -1.30251,1.89073 -1.3025,3.23523 l 0,13.61317 -5.88223,0 0,-22.68862"
         inkscape:connector-curvature="0" />
      <path
         id="path3830"
         d="m 203.60831,268.88455 7.43683,-8.82335 6.68053,0 -7.73093,8.57126 8.27714,14.11736 -6.89062,0 -5.42005,-9.9998 -2.3529,2.56297 0,7.43683 -5.88223,0 0,-30.62964 5.88223,0 0,16.76437"
         inkscape:connector-curvature="0" />
      <path
         id="path3832"
         style="fill:#253c5c;fill-opacity:1"
         d="m 233.58472,259.68306 c 2.71702,2e-5 4.98588,1.13445 6.80659,3.40329 1.82067,2.24087 2.73101,5.11196 2.73104,8.61327 -3e-5,3.41731 -0.91037,6.27439 -2.73104,8.57126 -1.82071,2.29687 -4.08957,3.4453 -6.80659,3.4453 -2.77306,0 -4.85985,-1.09241 -6.26037,-3.27724 l 0,2.31088 -5.88224,0 0,-30.62964 5.88224,0 0,10.88214 c 1.40052,-2.21282 3.48731,-3.31924 6.26037,-3.31926 m 2.26887,6.93263 c -0.92437,-1.34449 -2.11482,-2.01675 -3.57136,-2.01677 -1.45657,2e-5 -2.64702,0.65827 -3.57136,1.97475 -0.92436,1.28851 -1.38653,2.96914 -1.38652,5.04192 -1e-5,2.15683 0.44816,3.89348 1.34451,5.20998 0.92434,1.3165 2.12879,1.97475 3.61337,1.97475 1.45654,0 2.64699,-0.65825 3.57136,-1.97475 0.92433,-1.3165 1.3865,-3.01114 1.38652,-5.08393 -2e-5,-2.10079 -0.46219,-3.80944 -1.38652,-5.12595"
         inkscape:connector-curvature="0" />
      <path
         id="path3834"
         d="m 260.75,260 0,5.53125 c 0.29288,0.25859 0.56502,0.55687 0.8125,0.90625 0.98035,1.31651 1.46873,3.10291 1.46875,5.34375 -2e-5,2.12882 -0.49163,3.87425 -1.5,5.21875 -0.98038,1.31651 -2.24392,1.96875 -3.8125,1.96875 -1.59662,0 -2.89463,-0.68673 -3.875,-2.03125 -0.98038,-1.3445 -1.46876,-3.09317 -1.46875,-5.25 -1e-5,-2.15681 0.48837,-3.90548 1.46875,-5.25 0.20739,-0.28441 0.42129,-0.52575 0.65625,-0.75 l 0,-5.65625 c -2.01295,0.47426 -3.69177,1.42233 -5.03125,2.875 -1.98875,2.12882 -2.96875,5.05585 -2.96875,8.78125 0,3.72542 0.98,6.68694 2.96875,8.84375 1.98875,2.12881 4.74866,3.1875 8.25,3.1875 3.44529,0 6.17072,-1.05869 8.1875,-3.1875 2.01675,-2.1288 3.03123,-5.01486 3.03125,-8.65625 -2e-5,-3.83744 -1.01127,-6.83993 -3,-8.96875 -1.35119,-1.48628 -3.07814,-2.44418 -5.1875,-2.90625 z"
         inkscape:connector-curvature="0" />
      <path
         id="path3836"
         d="m 283.51544,260.52338 0,3.90748 -3.27725,0 0,12.35269 c -10e-6,1.00839 0.12604,1.68064 0.37815,2.01677 0.25208,0.30812 0.77028,0.46218 1.55459,0.46217 0.3081,10e-6 0.75627,-0.042 1.34451,-0.12605 l 0,4.11757 c -0.95238,0.30811 -2.0868,0.46217 -3.40329,0.46217 -3.83747,0 -5.75619,-1.77867 -5.75619,-5.33602 l 0,-13.9493 -2.8991,0 0,-3.90748 2.8991,0 0,-6.09232 5.88223,0 0,6.09232 3.27725,0"
         inkscape:connector-curvature="0" />
    </g>
    <rect
       style="fill:#000000;fill-opacity:1;stroke:#000000;stroke-width:0;stroke-linecap:butt;stroke-miterlimit:4;stroke-opacity:1;stroke-dasharray:none;stroke-dashoffset:0"
       id="rect3802-0"
       width="3.3661165"
       height="13.415732"
       x="256.03571"
       y="256.27933"
       ry="0.86843204" />
  </g>
  <g
     id="g3164"
     transform="translate(9.703594,28.032605)">
    <path
       id="path3133"
       d="M 32.734824,399.17105 19.322233,248.68804 H 166.86028 l -13.41259,150.48301 -60.519843,17.01119"
       inkscape:connector-curvature="0"
       style="fill:#d6ba32" />
    <path
       id="path3135"
       d="M 93.255115,404.22021 141.9978,390.80717 153.44769,261.9153 H 93.255115 v 142.30491 z"
       inkscape:connector-curvature="0"
       style="fill:#ffda3e" />
    <path
       id="path3137"
       d="M 151.35796,287.17646"
       inkscape:connector-curvature="0"
       style="fill:#ffffff" />
    <polygon
       transform="matrix(0.45202853,0,0,0.45202853,19.322233,248.68804)"
       id="polygon3139"
       points="149.997,71.82 118.415,71.82 118.415,242.706 55.248,225.11 55.248,263.216 149.997,289.606 "
       style="fill:#ebebeb" />
    <polygon
       transform="matrix(0.45202853,0,0,0.45202853,19.322233,248.68804)"
       id="polygon3141"
       points="207.971,109.926 276.936,109.926 280.25,71.82 176.389,71.82 176.389,213.309 241.211,201.71 239.555,234.647 176.389,251.413 176.389,289.518 264.512,266.439 272.795,160.414 207.971,168.404 "
       style="fill:#ffffff" />
  </g>
  <g
     style="font-size:48.23618317px;font-family:MinionPro-Regular"
     id="text3143"
     transform="matrix(1.097511,0,0,1.097511,-20.024181,-37.058233)">
    <path
       inkscape:connector-curvature="0"
       d="m 212.58377,334.84372 4.75767,0 0,32.71487 c -1e-5,4.23951 -0.80865,7.31708 -2.42594,9.23271 -1.6016,1.91562 -4.18455,2.87344 -7.74888,2.87344 l -1.81356,0 0,-4.00398 1.48382,0 c 2.10405,0 3.58788,-0.58882 4.45149,-1.76646 0.8636,-1.17764 1.2954,-3.28954 1.2954,-6.33571 l 0,-32.71487"
       style="font-size:48.23618317px;font-family:MinionPro-Regular"
       id="path3191" />
    <path
       inkscape:connector-curvature="0"
       d="m 238.60964,356.74785 c -3.50153,10e-6 -5.92747,0.40041 -7.27782,1.20119 -1.35037,0.80081 -2.02555,2.16687 -2.02554,4.09819 -10e-6,1.53879 0.50245,2.76354 1.50738,3.67424 1.02061,0.89501 2.40238,1.34252 4.1453,1.34251 2.40237,10e-6 4.32585,-0.84789 5.77044,-2.5437 1.46025,-1.7115 2.19039,-3.98042 2.19041,-6.80677 l 0,-0.96566 -4.31017,0 m 8.64389,-1.79002 0,15.05026 -4.33372,0 0,-4.00398 c -0.98924,1.60159 -2.22184,2.78708 -3.69779,3.55647 -1.476,0.75369 -3.28171,1.13054 -5.41715,1.13054 -2.70074,0 -4.85189,-0.75369 -6.45348,-2.26107 -1.58589,-1.52308 -2.37883,-3.55647 -2.37883,-6.10018 0,-2.96765 0.98921,-5.20516 2.96765,-6.71256 1.99413,-1.50736 4.96179,-2.26105 8.90297,-2.26107 l 6.07663,0 0,-0.42395 c -2e-5,-1.99412 -0.6595,-3.5329 -1.97844,-4.61635 -1.30327,-1.09911 -3.14039,-1.64868 -5.51136,-1.6487 -1.50739,2e-5 -2.97552,0.18059 -4.40438,0.54171 -1.42888,0.36117 -2.80279,0.90288 -4.12174,1.62515 l 0,-4.00398 c 1.58588,-0.61235 3.12467,-1.0677 4.61635,-1.36607 1.49167,-0.31401 2.94409,-0.47102 4.35728,-0.47105 3.81554,3e-5 6.66542,0.98924 8.54967,2.96765 1.8842,1.97846 2.82631,4.97752 2.82634,8.99718"
       style="font-size:48.23618317px;font-family:MinionPro-Regular"
       id="path3193" />
    <path
       inkscape:connector-curvature="0"
       d="m 253.09463,343.62892 4.5928,0 8.24349,22.13966 8.24349,-22.13966 4.5928,0 -9.89219,26.37917 -5.88821,0 -9.89218,-26.37917"
       style="font-size:48.23618317px;font-family:MinionPro-Regular"
       id="path3195" />
    <path
       inkscape:connector-curvature="0"
       d="m 296.73801,356.74785 c -3.50153,10e-6 -5.92747,0.40041 -7.27782,1.20119 -1.35037,0.80081 -2.02555,2.16687 -2.02555,4.09819 0,1.53879 0.50246,2.76354 1.50738,3.67424 1.02062,0.89501 2.40238,1.34252 4.1453,1.34251 2.40237,10e-6 4.32585,-0.84789 5.77044,-2.5437 1.46026,-1.7115 2.19039,-3.98042 2.19042,-6.80677 l 0,-0.96566 -4.31017,0 m 8.64388,-1.79002 0,15.05026 -4.33371,0 0,-4.00398 c -0.98924,1.60159 -2.22184,2.78708 -3.6978,3.55647 -1.47599,0.75369 -3.28171,1.13054 -5.41715,1.13054 -2.70073,0 -4.85189,-0.75369 -6.45347,-2.26107 -1.5859,-1.52308 -2.37884,-3.55647 -2.37884,-6.10018 0,-2.96765 0.98922,-5.20516 2.96766,-6.71256 1.99413,-1.50736 4.96178,-2.26105 8.90297,-2.26107 l 6.07663,0 0,-0.42395 c -3e-5,-1.99412 -0.6595,-3.5329 -1.97844,-4.61635 -1.30328,-1.09911 -3.14039,-1.64868 -5.51136,-1.6487 -1.5074,2e-5 -2.97552,0.18059 -4.40438,0.54171 -1.42888,0.36117 -2.80279,0.90288 -4.12175,1.62515 l 0,-4.00398 c 1.58589,-0.61235 3.12467,-1.0677 4.61636,-1.36607 1.49167,-0.31401 2.94409,-0.47102 4.35727,-0.47105 3.81554,3e-5 6.66543,0.98924 8.54968,2.96765 1.8842,1.97846 2.82631,4.97752 2.82633,8.99718"
       style="font-size:48.23618317px;font-family:MinionPro-Regular"
       id="path3197" />
    <path
       inkscape:connector-curvature="0"
       d="m 335.60017,335.99781 0,4.63991 c -1.80574,-0.86358 -3.50939,-1.50735 -5.11096,-1.93134 -1.60161,-0.42391 -3.14825,-0.63589 -4.63991,-0.63592 -2.59082,3e-5 -4.59281,0.50249 -6.00597,1.50738 -1.39747,1.00495 -2.09621,2.43382 -2.0962,4.28661 -1e-5,1.55451 0.4632,2.73215 1.38962,3.53293 0.9421,0.78511 2.71641,1.42104 5.32294,1.90778 l 2.87344,0.58882 c 3.54861,0.6752 6.16297,1.86854 7.84309,3.58002 1.69578,1.69582 2.54368,3.97259 2.54371,6.83032 -3e-5,3.40732 -1.14627,5.99028 -3.43872,7.74888 -2.27679,1.75861 -5.62129,2.63792 -10.0335,2.63792 -1.66441,0 -3.43872,-0.18842 -5.32294,-0.56527 -1.86853,-0.37684 -3.80771,-0.93426 -5.81754,-1.67225 l 0,-4.89899 c 1.93132,1.08344 3.8234,1.89994 5.67623,2.4495 1.85281,0.54957 3.67422,0.82435 5.46425,0.82435 2.71641,0 4.81261,-0.53386 6.28861,-1.6016 1.47595,-1.06772 2.21394,-2.5908 2.21396,-4.56924 -2e-5,-1.7272 -0.53389,-3.07756 -1.60159,-4.05109 -1.05205,-0.9735 -2.7871,-1.70364 -5.20518,-2.19041 l -2.89699,-0.56527 c -3.54864,-0.70657 -6.11589,-1.81355 -7.70178,-3.32095 -1.58589,-1.50736 -2.37883,-3.60356 -2.37883,-6.2886 0,-3.10895 1.09128,-5.55844 3.27384,-7.34848 2.19826,-1.78998 5.22087,-2.68499 9.06784,-2.68503 1.64868,4e-5 3.32878,0.14921 5.0403,0.44751 1.71149,0.29837 3.46224,0.74587 5.25228,1.34251"
       style="font-size:48.23618317px;font-family:MinionPro-Regular"
       id="path3199" />
    <path
       inkscape:connector-curvature="0"
       d="m 363.93422,344.6417 0,4.05108 c -1.22477,-0.67516 -2.45736,-1.17762 -3.69779,-1.50738 -1.22476,-0.34542 -2.46521,-0.51814 -3.72135,-0.51816 -2.81065,2e-5 -4.99321,0.89503 -6.54768,2.68502 -1.55449,1.77433 -2.33174,4.27093 -2.33173,7.4898 -1e-5,3.21889 0.77724,5.72334 2.33173,7.51335 1.55447,1.77432 3.73703,2.66147 6.54768,2.66147 1.25614,0 2.49659,-0.16487 3.72135,-0.49461 1.24043,-0.34544 2.47302,-0.85575 3.69779,-1.53093 l 0,4.00398 c -1.20906,0.56526 -2.46521,0.98921 -3.76845,1.27185 -1.28757,0.28263 -2.66148,0.42395 -4.12174,0.42395 -3.97259,0 -7.12867,-1.2483 -9.46824,-3.7449 -2.33958,-2.49659 -3.50937,-5.86464 -3.50937,-10.10416 0,-4.3023 1.17764,-7.68605 3.53293,-10.15127 2.37097,-2.46517 5.61341,-3.69776 9.72731,-3.69779 1.33464,3e-5 2.6379,0.14134 3.90977,0.42395 1.27183,0.26696 2.50443,0.67521 3.69779,1.22475"
       style="font-size:48.23618317px;font-family:MinionPro-Regular"
       id="path3201" />
    <path
       inkscape:connector-curvature="0"
       d="m 386.80401,347.68001 c -0.48678,-0.28261 -1.02064,-0.48674 -1.60159,-0.61237 -0.56529,-0.1413 -1.19336,-0.21196 -1.88423,-0.21198 -2.4495,2e-5 -4.33373,0.80082 -5.65267,2.40239 -1.30327,1.58591 -1.9549,3.87053 -1.95489,6.85387 l 0,13.89617 -4.35727,0 0,-26.37917 4.35727,0 0,4.0982 c 0.9107,-1.60157 2.09619,-2.78706 3.55648,-3.55648 1.46026,-0.78507 3.23457,-1.17761 5.32294,-1.17764 0.29831,3e-5 0.62805,0.0236 0.98921,0.0707 0.36113,0.0314 0.76153,0.0864 1.2012,0.16487 l 0.0236,4.45148"
       style="font-size:48.23618317px;font-family:MinionPro-Regular"
       id="path3203" />
    <path
       inkscape:connector-curvature="0"
       d="m 391.39681,343.62892 4.33372,0 0,26.37917 -4.33372,0 0,-26.37917 m 0,-10.26903 4.33372,0 0,5.48781 -4.33372,0 0,-5.48781"
       style="font-size:48.23618317px;font-family:MinionPro-Regular"
       id="path3205" />
    <path
       inkscape:connector-curvature="0"
       d="m 408.96722,366.05121 0,13.99038 -4.35727,0 0,-36.41267 4.35727,0 0,4.00398 c 0.9107,-1.57016 2.05694,-2.7321 3.43872,-3.48581 1.39745,-0.76937 3.06185,-1.15406 4.99319,-1.15409 3.20317,3e-5 5.80183,1.27188 7.79599,3.81556 2.00981,2.54372 3.01473,5.88822 3.01476,10.0335 -3e-5,4.1453 -1.00495,7.4898 -3.01476,10.0335 -1.99416,2.54371 -4.59282,3.81556 -7.79599,3.81556 -1.93134,0 -3.59574,-0.37685 -4.99319,-1.13054 -1.38178,-0.76939 -2.52802,-1.93918 -3.43872,-3.50937 m 14.74407,-9.20915 c -2e-5,-3.18747 -0.6595,-5.68406 -1.97844,-7.4898 -1.30327,-1.8214 -3.10114,-2.7321 -5.39359,-2.73213 -2.29249,3e-5 -4.09821,0.91073 -5.41715,2.73213 -1.30327,1.80574 -1.9549,4.30233 -1.95489,7.4898 -10e-6,3.18749 0.65162,5.69194 1.95489,7.51335 1.31894,1.80572 3.12466,2.70858 5.41715,2.70857 2.29245,10e-6 4.09032,-0.90285 5.39359,-2.70857 1.31894,-1.82141 1.97842,-4.32586 1.97844,-7.51335"
       style="font-size:48.23618317px;font-family:MinionPro-Regular"
       id="path3207" />
    <path
       inkscape:connector-curvature="0"
       d="m 439.6801,336.13913 0,7.48979 8.92652,0 0,3.36806 -8.92652,0 0,14.32012 c -10e-6,2.15116 0.29048,3.53292 0.87146,4.14529 0.59666,0.61238 1.79785,0.91857 3.60358,0.91856 l 4.45148,0 0,3.62714 -4.45148,0 c -3.34451,0 -5.65269,-0.62023 -6.92453,-1.86068 -1.27186,-1.25614 -1.90778,-3.53291 -1.90778,-6.83031 l 0,-14.32012 -3.17963,0 0,-3.36806 3.17963,0 0,-7.48979 4.35727,0"
       style="font-size:48.23618317px;font-family:MinionPro-Regular"
       id="path3209" />
  </g>
</svg>
