<?xml version="1.0" encoding="utf-8"?>
<!-- Generator: Adobe Illustrator 16.0.3, SVG Export Plug-In . SVG Version: 6.00 Build 0)  -->
<!DOCTYPE svg PUBLIC "-//W3C//DTD SVG 1.1//EN" "http://www.w3.org/Graphics/SVG/1.1/DTD/svg11.dtd">
<svg version="1.1" id="Layer_1" xmlns="http://www.w3.org/2000/svg" xmlns:xlink="http://www.w3.org/1999/xlink" x="0px" y="0px"
	 width="512.6px" height="512.6px" viewBox="0 0 512.6 512.6" style="enable-background:new 0 0 512.6 512.6;" xml:space="preserve"
	>
<g>
	<defs>
		<rect id="SVGID_1_" x="-43.7" y="-43.7" width="600" height="600"/>
	</defs>
	<clipPath id="SVGID_2_">
		<use xlink:href="#SVGID_1_"  style="overflow:visible;"/>
	</clipPath>
	<path style="clip-path:url(#SVGID_2_);fill:#ABDADB;" d="M502.5,256.3c0,136-110.2,246.2-246.2,246.2
		c-136,0-246.2-110.2-246.2-246.2S120.4,10.2,256.3,10.2C392.3,10.2,502.5,120.4,502.5,256.3"/>
</g>
<g>
	<defs>
		<polygon id="SVGID_3_" points="256.3,-25.7 189.3,-25.7 256.3,256.3 323.4,-25.7 		"/>
	</defs>
	<clipPath id="SVGID_4_">
		<use xlink:href="#SVGID_3_"  style="overflow:visible;"/>
	</clipPath>
	<path style="clip-path:url(#SVGID_4_);fill:#2B89AA;" d="M512.6,256.3c0,141.6-114.8,256.3-256.3,256.3
		C114.8,512.6,0,397.9,0,256.3C0,114.8,114.8,0,256.3,0C397.9,0,512.6,114.8,512.6,256.3"/>
</g>
<g>
	<defs>
		<rect id="SVGID_5_" x="-43.7" y="-43.7" width="600" height="600"/>
	</defs>
	<clipPath id="SVGID_6_">
		<use xlink:href="#SVGID_5_"  style="overflow:visible;"/>
	</clipPath>
	<path style="clip-path:url(#SVGID_6_);fill:#202020;" d="M459.4,256.3c0,112.2-90.9,203.1-203.1,203.1
		c-112.2,0-203.1-90.9-203.1-203.1c0-112.2,90.9-203.1,203.1-203.1C368.5,53.2,459.4,144.1,459.4,256.3"/>
	
		<line style="clip-path:url(#SVGID_6_);fill:none;stroke:#2B89AA;stroke-width:10;stroke-miterlimit:10;" x1="256.3" y1="34.5" x2="256.3" y2="72"/>
</g>
</svg>
